
<svg version="1.1" id="Layer_1" xmlns="http://www.w3.org/2000/svg" xmlns:xlink="http://www.w3.org/1999/xlink" x="0px" y="0px"
	 viewBox="941.667 180.662 32.333 32.333" style="enable-background:new 941.667 180.662 32.333 32.333;" xml:space="preserve">
<g>
	<g>
		<path style="fill:#76CC1E;" d="M957.833,212.995c-8.915,0-16.167-7.252-16.167-16.167c0-8.915,7.252-16.167,16.167-16.167
			S974,187.914,974,196.829C974,205.743,966.748,212.995,957.833,212.995z M957.833,182.662c-7.812,0-14.167,6.355-14.167,14.167
			s6.355,14.167,14.167,14.167c7.811,0,14.167-6.355,14.167-14.167S965.645,182.662,957.833,182.662z"/>
	</g>
	<g>
		<path style="fill:#76CC1E;" d="M954.218,203.807c-0.256,0-0.512-0.098-0.707-0.293l-4.726-4.726c-0.391-0.391-0.391-1.023,0-1.414
			s1.023-0.391,1.414,0l4.019,4.019l11.25-11.25c0.391-0.391,1.023-0.391,1.414,0s0.391,1.023,0,1.414l-11.957,11.957
			C954.729,203.709,954.474,203.807,954.218,203.807z"/>
	</g>
</g>
</svg>
