<?xml version="1.0" encoding="iso-8859-1"?>
<!-- Generator: Adobe Illustrator 18.1.1, SVG Export Plug-In . SVG Version: 6.00 Build 0)  -->
<svg version="1.1" id="Layer_1" xmlns="http://www.w3.org/2000/svg" xmlns:xlink="http://www.w3.org/1999/xlink" x="0px" y="0px"
	 viewBox="0 0 400 100" style="enable-background:new 0 0 400 100;" xml:space="preserve">
<g>
	<rect x="0" y="0" style="fill:transparent;" width="100" height="100"/>
	<path style="fill:#6A6158;" d="M67.671,64.896c-0.776-2.552-7.048-6.007-9.963-7.28c-0.199-0.086-0.425-0.082-0.619,0.012
		l-7.071,3.418l-6.337-3.403c-0.19-0.102-0.417-0.116-0.62-0.038c-2.539,0.988-9.954,4.456-10.696,7.323
		c-0.53,2.047-0.741,3.051-0.75,3.092c-0.01,0.05-0.016,0.101-0.016,0.152c0,1.006,0.506,1.482,0.929,1.704
		c0.624,0.326,1.373,0.299,2.144,0.284c0.165-0.003,0.335-0.006,0.505-0.006h29.645c0.223,0,0.443,0.008,0.656,0.016
		c0.217,0.008,0.427,0.015,0.627,0.015c0.567,0,2.295,0,2.295-1.913C68.4,67.493,68.329,67.06,67.671,64.896z M66.106,68.701
		c-0.183,0-0.375-0.007-0.574-0.014c-0.23-0.008-0.469-0.016-0.709-0.016H35.178c-0.18,0-0.358-0.003-0.532,0
		c-0.158,0.003-0.314,0-0.465,0c-0.002,0-0.003,0-0.005,0c-0.204,0-0.729,0.005-0.96-0.115c-0.046-0.024-0.121-0.058-0.133-0.313
		c0.06-0.275,0.28-1.256,0.717-2.945c0.433-1.673,5.706-4.666,9.482-6.187l6.367,3.419c0.208,0.113,0.459,0.118,0.673,0.014
		l7.102-3.433c4.174,1.876,8.413,4.849,8.828,6.215c0.633,2.083,0.665,2.383,0.665,2.943C66.918,68.61,66.918,68.701,66.106,68.701z
		"/>
	<path style="fill:#6A6158;" d="M42.219,48.895c0.4,0.999,0.856,1.715,1.335,2.469c0.135,0.213,0.273,0.429,0.411,0.656
		c0.481,0.789,0.969,1.38,1.512,1.828c-0.037,0.73-0.128,1.628-0.292,2.295c-0.098,0.397,0.145,0.799,0.543,0.897
		c0.397,0.098,0.799-0.145,0.897-0.543c0.221-0.901,0.325-2.133,0.348-2.985c0.007-0.25-0.113-0.487-0.318-0.629
		c-0.506-0.35-0.958-0.87-1.424-1.635c-0.144-0.235-0.286-0.459-0.426-0.679c-0.514-0.807-0.958-1.505-1.335-2.553
		c-0.098-0.273-0.383-0.465-0.671-0.49c-0.072-0.006-0.268-0.123-0.373-0.314c-0.748-1.373-1.069-3.471-0.929-3.899
		c0.019-0.012,0.102-0.041,0.283-0.038c0.211,0.016,0.403-0.073,0.548-0.219c0.144-0.145,0.222-0.344,0.215-0.549
		c-0.157-4.252,1.408-6.537,2.749-7.706c0.246-0.215,0.323-0.565,0.189-0.863c-0.009-0.02-0.019-0.04-0.029-0.058
		c0.632-0.425,1.694-0.397,1.707-0.394l0.041-0.74l0.61-0.42c-0.049-0.112,0.05-0.383,0.19-0.63c0.42,0.351,0.982,0.603,1.508,0.748
		c1.522,0.422,2.627,0.856,3.312,1.158c3.159,1.252,4.878,4.498,4.715,8.908c-0.007,0.199,0.066,0.392,0.202,0.537
		c0.136,0.144,0.325,0.228,0.524,0.232c0.137,0.003,0.206,0.03,0.202,0.017c0.159,0.452-0.161,2.553-0.909,3.925
		c-0.106,0.193-0.298,0.313-0.371,0.324c-0.271,0.038-0.499,0.221-0.593,0.477c-0.383,1.036-0.849,1.766-1.343,2.539
		c-0.15,0.234-0.301,0.472-0.454,0.722c-0.449,0.738-0.858,1.236-1.286,1.567c-0.183,0.141-0.29,0.36-0.288,0.592
		c0.005,0.675,0.06,1.98,0.377,3.143c0.09,0.329,0.389,0.546,0.715,0.546c0.065,0,0.13-0.009,0.196-0.026
		c0.395-0.108,0.628-0.516,0.52-0.91c-0.231-0.844-0.299-1.822-0.318-2.418c0.463-0.422,0.899-0.979,1.35-1.72
		c0.147-0.241,0.293-0.47,0.438-0.696c0.463-0.725,0.941-1.473,1.351-2.481c0.407-0.184,0.777-0.524,1.007-0.946
		c0.863-1.583,1.361-4.124,1.006-5.129c-0.143-0.405-0.434-0.702-0.834-0.864c-0.007-4.695-2.095-8.301-5.636-9.703
		c-0.704-0.31-1.88-0.774-3.488-1.219c-0.707-0.196-1.047-0.516-1.082-0.576c-0.033-0.198-0.144-0.375-0.309-0.49
		c-0.165-0.115-0.371-0.158-0.567-0.117c-0.647,0.129-1.213,0.996-1.436,1.547c-0.092,0.229-0.151,0.453-0.174,0.667
		c-0.981,0.138-2.354,0.61-2.735,1.994c-0.043,0.125-0.057,0.259-0.035,0.389c-1.284,1.437-2.509,3.776-2.515,7.469
		c-0.449,0.151-0.775,0.46-0.929,0.899c-0.356,1.003,0.142,3.542,1.005,5.126C41.372,48.373,41.777,48.725,42.219,48.895z"/>
</g>
<g>
	<rect x="200" y="0" style="fill:transparent;" width="100" height="100"/>
	<path style="fill:#6A6158;" d="M266.154,46.2l-5.604,3.821v-7.72c0-0.416-0.337-0.754-0.754-0.754h-19.593
		c-0.417,0-0.754,0.337-0.754,0.754v7.72l-5.604-3.821c-0.344-0.234-0.813-0.146-1.047,0.198c-0.235,0.344-0.146,0.813,0.198,1.047
		l14.088,9.605c0.818,0.557,1.866,0.836,2.915,0.836c1.049,0,2.097-0.279,2.915-0.836l14.088-9.605
		c0.344-0.234,0.433-0.703,0.198-1.047C266.967,46.054,266.498,45.966,266.154,46.2z M252.066,55.805
		c-1.12,0.764-3.011,0.763-4.131,0l-7.093-4.836c0.067-0.113,0.116-0.238,0.116-0.379v-7.536h18.086v7.536
		c0,0.141,0.049,0.266,0.116,0.379L252.066,55.805z"/>
	<path style="fill:#6A6158;" d="M269.2,43.309l-16.351-12.578c-0.767-0.59-1.778-0.914-2.849-0.914
		c-1.071,0-2.082,0.325-2.848,0.914l-16.359,12.584c-0.65,0.499-1.14,1.521-1.14,2.377v20.723c0,2.077,1.69,3.768,3.768,3.768
		h33.157c2.077,0,3.768-1.69,3.768-3.768V45.692C270.346,44.836,269.853,43.812,269.2,43.309z M268.839,66.415
		c0,1.247-1.014,2.261-2.261,2.261h-33.157c-1.247,0-2.261-1.014-2.261-2.261V45.692c0-0.383,0.272-0.968,0.55-1.182l16.359-12.585
		c0.497-0.382,1.2-0.602,1.93-0.602c0.729,0,1.433,0.219,1.93,0.602l16.351,12.578c0.281,0.217,0.558,0.805,0.558,1.189V66.415z"/>
	<path style="fill:#6A6158;" d="M255.275,46.069h-10.55c-0.417,0-0.754,0.337-0.754,0.754c0,0.416,0.337,0.754,0.754,0.754h10.55
		c0.416,0,0.754-0.337,0.754-0.754C256.029,46.406,255.691,46.069,255.275,46.069z"/>
	<path style="fill:#6A6158;" d="M255.275,49.083h-10.55c-0.417,0-0.754,0.337-0.754,0.754s0.337,0.754,0.754,0.754h10.55
		c0.416,0,0.754-0.337,0.754-0.754S255.691,49.083,255.275,49.083z"/>
</g>
<g>
	<rect x="100" y="0" style="fill:transparent;" width="100" height="100"/>
	<path style="fill:#6A6158;" d="M170.434,63.215c-0.109-0.737-0.587-1.387-1.463-1.985l-9.028-6.177
		c-0.466-0.317-1.008-0.486-1.568-0.486c-0.872,0-1.688,0.411-2.188,1.105l-2.343,3.317c-0.184,0.257-0.227,0.574-0.239,0.879
		c-0.896,0.132-3.494,0.051-7.756-4.21c-4.122-4.116-6.074-7.143-5.821-9.012c0.046-0.022,0.079-0.067,0.12-0.098
		c0.215-0.06,0.412-0.133,0.572-0.257l3.235-2.451c1.155-0.871,1.381-2.565,0.502-3.781l-6.47-8.823
		c-1.245-1.695-2.709-1.873-4.28-0.522c-0.994,0.852-2.643,2.909-3.326,4.147c-0.375,0.663-0.531,1.347-0.464,2.036
		c-0.239,0.991-0.76,3.912,0.108,7.986c1.179,5.537,4.368,10.853,9.478,15.8c8.544,8.267,16.049,9.502,19.762,9.503h0
		c2.184,0,3.706-0.401,4.408-0.696c0.652,0.028,1.297-0.156,1.925-0.533c1.217-0.721,3.217-2.437,4.035-3.463
		C170.28,64.692,170.541,63.946,170.434,63.215z M168.443,64.537c-0.705,0.884-2.567,2.481-3.625,3.106
		c-0.143,0.086-0.285,0.148-0.425,0.2c-1.03-0.447-2.843-1.395-3.386-2.074c-0.263-0.329-0.744-0.382-1.072-0.119
		c-0.329,0.264-0.383,0.744-0.119,1.073c0.479,0.599,1.396,1.197,2.233,1.662c-0.669,0.145-1.599,0.273-2.784,0.273h0
		c-3.482-0.001-10.543-1.18-18.701-9.074c-11.634-11.263-9.424-21.336-9.134-22.447c0.026-0.099,0.031-0.203,0.016-0.304
		c-0.06-0.404,0.026-0.804,0.267-1.229c0.597-1.081,2.132-2.999,2.988-3.733c0.394-0.339,0.744-0.518,1.012-0.518
		c0.115,0,0.466,0,1.043,0.785l6.467,8.819c0.393,0.543,0.308,1.29-0.189,1.665l-3.201,2.428c-0.013,0.006-0.035,0.013-0.057,0.02
		c-0.844-0.647-1.998-1.624-2.362-2.182c-0.23-0.353-0.704-0.452-1.056-0.223c-0.353,0.23-0.452,0.703-0.222,1.056
		c0.493,0.756,1.684,1.756,2.446,2.354c-0.608,2.486,1.323,5.804,6.187,10.661c3.876,3.875,6.701,4.688,8.389,4.688
		c0.74,0,1.294-0.165,1.566-0.319c0.204-0.116,0.344-0.32,0.378-0.552c0.015-0.104,0.021-0.253,0.022-0.418
		c0.001-0.092,0.003-0.249,0.014-0.336l2.29-3.241c0.348-0.484,1.126-0.605,1.653-0.246l9.027,6.176
		c0.498,0.341,0.772,0.659,0.814,0.948C168.966,63.72,168.805,64.089,168.443,64.537z"/>
	<path style="fill:#6A6158;" d="M149.129,38.607c5.901,1.802,10.519,6.396,12.352,12.288c0.102,0.327,0.403,0.536,0.728,0.536
		c0.075,0,0.152-0.011,0.227-0.034c0.402-0.125,0.627-0.553,0.502-0.955c-1.984-6.375-6.979-11.345-13.364-13.294
		c-0.403-0.127-0.829,0.104-0.953,0.507C148.499,38.058,148.726,38.484,149.129,38.607z"/>
	<path style="fill:#6A6158;" d="M150.177,32.953c8.848,2.092,15.614,9.223,17.234,18.166c0.067,0.368,0.388,0.627,0.75,0.627
		c0.045,0,0.091-0.004,0.137-0.012c0.415-0.075,0.69-0.472,0.615-0.887c-1.729-9.541-8.945-17.148-18.385-19.379
		c-0.409-0.093-0.821,0.157-0.918,0.567C149.513,32.445,149.766,32.856,150.177,32.953z"/>
</g>
<g>
	<rect x="300" y="0" style="fill:transparent;" width="100" height="100"/>
	<g>
		<path style="fill:#6A6158;" d="M350,71.367l-2.687-4.072c-0.026-0.041-2.789-4.223-5.611-9.279
			c-3.967-7.108-5.895-12.077-5.895-15.189c0-7.827,6.367-14.194,14.193-14.194S364.193,35,364.193,42.827
			c0,3.112-1.928,8.08-5.895,15.189c-2.671,4.785-5.314,8.828-5.607,9.273L350,71.367z M350,30.315
			c-6.899,0-12.511,5.612-12.511,12.512c0,2.779,1.912,7.614,5.681,14.37c2.791,5.001,5.519,9.131,5.546,9.172L350,68.314
			l1.283-1.945c0.292-0.443,2.905-4.44,5.547-9.173c3.823-6.852,5.681-11.553,5.681-14.37C362.511,35.927,356.899,30.315,350,30.315
			z M350,50.498c-4.28,0-7.763-3.482-7.763-7.762c0-4.28,3.482-7.763,7.763-7.763c4.28,0,7.762,3.482,7.762,7.763
			C357.762,47.016,354.28,50.498,350,50.498z M350,36.656c-3.353,0-6.081,2.727-6.081,6.081c0,3.352,2.727,6.08,6.081,6.08
			c3.352,0,6.08-2.727,6.08-6.08C356.08,39.383,353.352,36.656,350,36.656z"/>
	</g>
</g>
</svg>
