<?xml version="1.0" encoding="iso-8859-1"?>
<!-- Generator: Adobe Illustrator 18.1.1, SVG Export Plug-In . SVG Version: 6.00 Build 0)  -->
<svg version="1.1" id="Layer_1" xmlns="http://www.w3.org/2000/svg" xmlns:xlink="http://www.w3.org/1999/xlink" x="0px" y="0px"
	 viewBox="0 0 601 201" style="enable-background:new 0 0 601 201;" xml:space="preserve">
<g>
	<g>
		<rect x="0.5" y="0.5" style="fill:none;" width="200" height="200"/>
		<g>
			<g>
				<path style="fill:#00AEEF;" d="M100.5,50.5c27.614,0,50,22.386,50,50c0,27.614-22.386,50-50,50s-50-22.386-50-50
					C50.5,72.886,72.886,50.5,100.5,50.5 M100.5,47.5c-29.224,0-53,23.776-53,53c0,29.224,23.776,53,53,53s53-23.776,53-53
					C153.5,71.276,129.724,47.5,100.5,47.5L100.5,47.5z"/>
			</g>
			<path style="fill:#00AEEF;" d="M119.863,127.302c0,1.766-0.969,3.198-2.164,3.198H83.301c-1.195,0-2.164-1.432-2.164-3.198l0,0
				c0-1.766,0.969-3.199,2.164-3.199h34.399C118.894,124.104,119.863,125.536,119.863,127.302L119.863,127.302z M86.97,123.2
				c-0.047-0.19-0.048-0.35-0.048-0.467v-2.814c0-2.464,0.363-3.815,0.668-4.514c0.323-0.741,1.143-2.087,3.219-4.29l4.894-5.131
				c2.356-2.494,3.148-3.813,3.148-5.235c0-1.526-0.901-2.924-3.707-5.756l-4.888-5.016l-0.008-0.008l-0.007-0.007
				c-1.706-1.724-2.399-2.947-2.68-3.669c-0.29-0.746-0.637-2.195-0.637-4.862v-3.035c0-0.136,0-0.372,0.191-0.666h-3.059
				c-0.033,0.216-0.052,0.437-0.052,0.666v3.035c0,2.517,0.278,4.491,0.836,5.921c0.557,1.431,1.666,2.985,3.325,4.662l4.905,5.034
				c1.907,1.924,2.861,3.158,2.861,3.7c0,0.494-0.78,1.567-2.341,3.22l-4.905,5.144c-1.908,2.024-3.165,3.733-3.772,5.126
				c-0.607,1.395-0.91,3.288-0.91,5.68v2.813c0,0.159,0.008,0.314,0.022,0.468H86.97z M105.273,105.957
				c-2.306-2.48-3.085-3.795-3.085-5.208c0-1.499,0.922-2.948,3.652-5.738l4.905-5.034l0.007-0.007l0.007-0.007
				c1.708-1.728,2.401-2.95,2.682-3.67c0.29-0.745,0.636-2.194,0.636-4.862v-3.035c0-0.136,0-0.372-0.191-0.666h3.059
				c0.032,0.216,0.052,0.437,0.052,0.666v3.035c0,2.517-0.278,4.491-0.835,5.921c-0.558,1.431-1.667,2.985-3.326,4.662l-4.905,5.034
				c-1.883,1.924-2.824,3.158-2.824,3.7c0,0.494,0.768,1.567,2.304,3.22l4.905,5.144c1.907,2.024,3.164,3.733,3.771,5.126
				c0.607,1.395,0.91,3.288,0.91,5.68v2.813c0,0.159-0.008,0.314-0.022,0.468h-2.945c0.047-0.19,0.047-0.35,0.047-0.467v-2.814
				c0-2.464-0.363-3.815-0.667-4.513c-0.323-0.742-1.145-2.088-3.207-4.278l-4.905-5.143l-0.013-0.014L105.273,105.957z
				 M113.179,123.2c-0.542-2.446-1.977-4.782-4.312-7.004l-3.265-3.06c-2.053-1.949-3.277-3.263-3.673-3.944
				c-0.396-0.679-0.866-2.198-1.41-4.555c-0.521,2.357-0.986,3.876-1.396,4.555c-0.409,0.68-1.643,1.995-3.702,3.944l-3.275,3.06
				c-2.342,2.222-3.782,4.557-4.325,7.004H113.179z M93.8,89.695l3.089,3.367c1.39,1.506,2.233,2.548,2.531,3.128
				c0.298,0.58,0.547,1.684,0.745,3.313c0.05,0.493,0.161,1.233,0.335,2.22c0.173-0.987,0.284-1.727,0.334-2.22
				c0.198-1.629,0.444-2.733,0.741-3.313c0.297-0.58,1.137-1.622,2.523-3.128l3.079-3.367c2.102-2.27,3.462-3.898,4.081-4.885
				c-3.692,2.319-7.283,3.479-10.776,3.479c-3.493,0-7.073-1.16-10.738-3.479C90.339,85.796,91.691,87.425,93.8,89.695z
				 M119.863,73.698c0-1.766-0.969-3.198-2.164-3.198H83.301c-1.195,0-2.164,1.432-2.164,3.198l0,0c0,1.766,0.969,3.198,2.164,3.198
				h34.399C118.894,76.896,119.863,75.464,119.863,73.698L119.863,73.698z"/>
		</g>
	</g>
	<g>
		<rect x="200.5" y="0.5" style="fill:none;" width="200" height="200"/>
		<g>
			<g>
				<path style="fill:#00AEEF;" d="M300.5,50.5c27.614,0,50,22.386,50,50c0,27.614-22.386,50-50,50s-50-22.386-50-50
					C250.5,72.886,272.886,50.5,300.5,50.5 M300.5,47.5c-29.224,0-53,23.776-53,53c0,29.224,23.776,53,53,53s53-23.776,53-53
					C353.5,71.276,329.724,47.5,300.5,47.5L300.5,47.5z"/>
			</g>
			<path style="fill:#00AEEF;" d="M334.227,98.411l-0.026-9.488c0.04-0.516,0.038-1.031-0.004-1.548l-0.001-0.312h-0.03
				c-0.294-2.577-1.598-5.111-3.903-7.642c-0.333-0.364-8.397-8.922-29.51-8.922c-21.094,0-29.619,8.537-29.995,8.926
				c-2.301,2.525-3.6,5.062-3.895,7.639h-0.028l-0.002,0.309c-0.041,0.498-0.043,0.993-0.008,1.489l-0.054,9.422
				c-0.037,5.815,5.171,11.421,15.481,16.69c-2.425,0.594-4.654,1.109-6.602,1.54c-0.152,0.003-0.297,0.036-0.428,0.095
				c-4.47,0.984-7.35,1.51-7.477,1.533c-0.526,0.095-0.909,0.552-0.909,1.087v10.167c0,0.327,0.145,0.637,0.396,0.847
				c0.2,0.168,0.452,0.257,0.708,0.257c0.065,0,0.13-0.006,0.195-0.017c0.162-0.029,16.312-2.957,32.374-8.188
				c16.068,5.231,32.226,8.159,32.388,8.188c0.065,0.012,0.13,0.017,0.195,0.017c0.257,0,0.508-0.09,0.708-0.257
				c0.251-0.21,0.396-0.519,0.396-0.846l0.012-10.167c0.001-0.535-0.383-0.994-0.909-1.088c-0.068-0.012-6.178-1.116-14.539-3.164
				C328.989,109.751,334.183,104.207,334.227,98.411z M300.519,109.802c-15.844-5.226-26.021-10.906-29.826-16.594
				c0.463-0.705,1.019-1.415,1.649-2.107c0.079-0.082,8.193-8.225,28.36-8.225c20.046,0,27.858,8.125,27.929,8.201
				c0.657,0.721,1.219,1.447,1.687,2.163C325.836,99.997,313.247,105.62,300.519,109.802z M272.373,80.928
				c0.091-0.09,0.798-0.764,2.191-1.689v2.672c0,0.61,0.494,1.104,1.104,1.104s1.104-0.494,1.104-1.104v-3.992
				c1.453-0.785,3.283-1.626,5.521-2.399v3.078c0,0.61,0.494,1.104,1.104,1.104c0.61,0,1.104-0.494,1.104-1.104v-3.776
				c1.554-0.448,3.27-0.853,5.153-1.186v3.121c0,0.61,0.494,1.104,1.104,1.104s1.104-0.494,1.104-1.104v-3.466
				c1.716-0.234,3.553-0.409,5.521-0.502v3.232c0,0.61,0.494,1.104,1.104,1.104s1.104-0.494,1.104-1.104v-3.298
				c0.384-0.006,0.765-0.014,1.157-0.014c1.393,0,2.72,0.043,3.996,0.116v3.197c0,0.61,0.494,1.104,1.104,1.104
				s1.104-0.494,1.104-1.104V72.99c1.994,0.184,3.836,0.448,5.527,0.774c-0.001,0.017-0.005,0.032-0.005,0.049v4.049
				c0,0.61,0.494,1.104,1.104,1.104c0.61,0,1.104-0.494,1.104-1.104v-3.623c1.948,0.467,3.665,1.01,5.174,1.579
				c-0.012,0.066-0.02,0.134-0.02,0.203v4.049c0,0.61,0.494,1.104,1.104,1.104s1.104-0.494,1.104-1.104v-3.349
				c2.161,0.979,3.744,1.962,4.816,2.732c-0.018,0.08-0.031,0.163-0.031,0.249v4.049c0,0.61,0.494,1.104,1.104,1.104
				s1.104-0.494,1.104-1.104v-2.375c1.781,2.077,2.759,4.091,2.946,6.085l0.004,1.37c-0.055,0.63-0.19,1.259-0.404,1.888
				c-0.036,0.105-0.081,0.209-0.121,0.313c-0.367-0.483-0.769-0.967-1.207-1.447c-0.335-0.364-8.446-8.918-29.558-8.918
				c-21.094,0-29.596,8.534-29.971,8.922c-0.431,0.473-0.822,0.949-1.185,1.427c-0.11-0.291-0.21-0.581-0.286-0.872
				c-0.117-0.445-0.19-0.891-0.228-1.337l0.008-1.393C269.251,85.293,270.353,83.151,272.373,80.928z M268.979,98.298L269,94.639
				c1.019,1.468,2.393,2.919,4.115,4.349c-0.015,0.072-0.023,0.147-0.023,0.224v4.049c0,0.61,0.494,1.104,1.104,1.104
				c0.61,0,1.104-0.494,1.104-1.104v-2.599c1.42,1.006,3.013,2.002,4.785,2.987v3.661c0,0.61,0.494,1.104,1.104,1.104
				c0.61,0,1.104-0.494,1.104-1.104v-2.486c1.596,0.814,3.314,1.621,5.153,2.42v3.748c0,0.61,0.494,1.104,1.104,1.104
				s1.104-0.494,1.104-1.104v-2.818c2.272,0.931,4.707,1.85,7.314,2.758c-3.942,1.215-7.821,2.287-11.405,3.21
				C274.527,108.939,268.945,103.609,268.979,98.298z M317.632,116.975v3.586c0,0.61,0.494,1.104,1.104,1.104
				s1.104-0.494,1.104-1.104v-3.05c2.014,0.481,3.874,0.904,5.521,1.265v3.625c0,0.61,0.494,1.104,1.104,1.104
				s1.104-0.494,1.104-1.104v-3.15c1.998,0.422,3.528,0.722,4.427,0.894l-0.01,7.918c-3.838-0.744-15.631-3.158-27.94-6.963
				c4.334-1.509,8.208-3.049,11.614-4.62C316.33,116.651,316.987,116.816,317.632,116.975z M300.15,120.088
				c-13.397,4.39-26.939,7.166-31.108,7.975v-7.916c1.081-0.204,3.004-0.578,5.521-1.117v2.635c0,0.61,0.494,1.104,1.104,1.104
				s1.104-0.494,1.104-1.104v-3.116c1.671-0.371,3.528-0.798,5.521-1.282v2.557c0,0.61,0.494,1.104,1.104,1.104
				c0.61,0,1.104-0.494,1.104-1.104v-3.101c1.651-0.414,3.377-0.863,5.153-1.346v2.607c0,0.61,0.494,1.104,1.104,1.104
				s1.104-0.494,1.104-1.104v-3.217c1.808-0.509,3.657-1.053,5.521-1.628v2.637c0,0.61,0.494,1.104,1.104,1.104
				s1.104-0.494,1.104-1.104v-3.333c1.719-0.552,3.442-1.132,5.153-1.739v2.495c0,0.61,0.494,1.104,1.104,1.104
				s1.104-0.494,1.104-1.104v-3.296c1.875-0.697,3.723-1.428,5.521-2.19v2.541c0,0.61,0.494,1.104,1.104,1.104
				c0.61,0,1.104-0.494,1.104-1.104v-3.506c1.79-0.807,3.518-1.646,5.153-2.519v2.344c0,0.61,0.494,1.104,1.104,1.104
				s1.104-0.494,1.104-1.104v-3.578c1.739-1.017,3.346-2.077,4.785-3.176v2.705c0,0.61,0.494,1.104,1.104,1.104
				s1.104-0.494,1.104-1.104v-4.049c0-0.149-0.03-0.29-0.084-0.42c1.202-1.097,2.23-2.232,3.049-3.402l0.01,3.752
				C331.962,105.777,320.942,113.275,300.15,120.088z"/>
		</g>
	</g>
	<g>
		<rect x="400.5" y="0.5" style="fill:none;" width="200" height="200"/>
		<g>
			<g>
				<path style="fill:#00AEEF;" d="M500.5,50.5c27.614,0,50,22.386,50,50c0,27.614-22.386,50-50,50s-50-22.386-50-50
					C450.5,72.886,472.886,50.5,500.5,50.5 M500.5,47.5c-29.224,0-53,23.776-53,53c0,29.224,23.776,53,53,53
					c29.224,0,53-23.776,53-53C553.5,71.276,529.724,47.5,500.5,47.5L500.5,47.5z"/>
			</g>
			<g>
				<g>
					<path style="fill:#00AEEF;" d="M516.221,91.957c-3.516-11.278,2.006-18.386,2.243-18.681c0.587-0.733,0.474-1.804-0.256-2.396
						c-0.733-0.591-1.806-0.483-2.398,0.252c-0.285,0.352-6.926,8.749-2.845,21.84c0.573,1.841,1.238,3.495,1.923,5.075
						c-2.205,0.868-6.852,2.223-14.386,2.223c-7.535,0-12.18-1.355-14.387-2.223c0.686-1.58,1.352-3.234,1.926-5.075
						c4.079-13.09-2.563-21.488-2.847-21.84c-0.591-0.733-1.661-0.841-2.391-0.252c-0.733,0.588-0.849,1.66-0.264,2.396
						c0.238,0.295,5.759,7.403,2.244,18.681c-0.863,2.77-1.979,5.193-3.058,7.54c-3.322,7.217-6.458,14.033-2.508,29.224
						c0.2,0.767,0.892,1.275,1.65,1.275c0.142,0,0.287-0.015,0.431-0.055c0.911-0.237,1.459-1.169,1.222-2.08
						c-2.971-11.419-1.688-17.513,0.614-23.131c5.64,0.59,11.557,4.18,15.661,9.215v14.848c0,0.944,0.764,1.706,1.707,1.706
						c0.942,0,1.707-0.762,1.707-1.706v-14.848c4.103-5.035,10.022-8.624,15.661-9.215c2.302,5.62,3.586,11.711,0.616,23.131
						c-0.237,0.911,0.307,1.844,1.221,2.08c0.143,0.04,0.287,0.055,0.43,0.055c0.757,0,1.45-0.508,1.65-1.275
						c3.951-15.192,0.815-22.008-2.506-29.224C518.199,97.15,517.084,94.727,516.221,91.957z"/>
					<path style="fill:#00AEEF;" d="M500.723,93.937c0.941,0,1.706-0.765,1.706-1.707v-0.992c0-0.941-0.765-1.705-1.706-1.705
						c-0.942,0-1.707,0.764-1.707,1.705v0.992C499.016,93.171,499.781,93.937,500.723,93.937z"/>
					<path style="fill:#00AEEF;" d="M481.409,88.827l-5.372,5.372c-0.821,0.822-1.487,0.545-1.487-0.616V81.099
						c0-1.161,0.666-1.436,1.487-0.615l5.372,5.37C482.23,86.676,482.23,88.008,481.409,88.827z"/>
					<path style="fill:#00AEEF;" d="M519.593,88.827l5.37,5.372c0.822,0.822,1.487,0.545,1.487-0.616V81.099
						c0-1.161-0.665-1.436-1.487-0.615l-5.37,5.37C518.772,86.676,518.772,88.008,519.593,88.827z"/>
				</g>
			</g>
		</g>
	</g>
</g>
</svg>
