<?xml version="1.0" encoding="iso-8859-1"?>
<!-- Generator: Adobe Illustrator 18.1.1, SVG Export Plug-In . SVG Version: 6.00 Build 0)  -->
<svg version="1.1" id="Layer_1" xmlns="http://www.w3.org/2000/svg" xmlns:xlink="http://www.w3.org/1999/xlink" x="0px" y="0px"
	 viewBox="0 0 249.309 100" style="enable-background:new 0 0 249.309 100;" xml:space="preserve">
<g>
	<path style="fill:#1C4969;" d="M249.309,68.417c-1.621-2.365-3.148-4.571-4.584-6.618c-1.249-1.754-2.511-3.527-3.786-5.321
		c-1.276-1.794-2.272-3.182-2.99-4.166c2.178-1.568,3.907-3.049,5.182-4.444c1.275-1.396,2.259-2.87,2.95-4.424
		c0.691-1.555,1.129-3.269,1.315-5.143c0.186-1.873,0.279-4.085,0.279-6.637v-4.186h-12.077v10.563c0,1.303-0.027,2.359-0.08,3.169
		c-0.053,0.81-0.16,1.475-0.319,1.992c-0.16,0.519-0.392,0.971-0.697,1.355c-0.305,0.386-0.697,0.791-1.176,1.216
		c-0.505-0.638-1.07-1.395-1.695-2.272c-0.624-0.877-1.289-1.807-1.992-2.79c-0.705-0.982-1.429-1.986-2.172-3.009
		c-0.745-1.024-1.462-2.026-2.153-3.01c-1.701-2.285-3.415-4.691-5.142-7.216h-13.314v0.838c1.408,1.86,2.737,3.654,3.986,5.38
		c1.09,1.462,2.179,2.944,3.269,4.446c1.09,1.501,1.967,2.664,2.632,3.487c-1.808,1.674-3.282,3.123-4.424,4.345
		c-1.143,1.222-2.04,2.57-2.691,4.046c-0.652,1.475-1.084,3.262-1.296,5.36c-0.212,2.1-0.318,4.864-0.318,8.292v5.54h11.679v-6.378
		c0-1.833-0.02-3.487-0.06-4.962c-0.039-1.475,0-2.784,0.119-3.927c0.12-1.142,0.325-2.152,0.618-3.03
		c0.293-0.877,0.798-1.687,1.515-2.431c0.479,0.691,1.043,1.515,1.695,2.471c0.651,0.957,1.348,1.994,2.093,3.109
		c0.744,1.117,1.52,2.26,2.332,3.428c0.81,1.169,1.601,2.326,2.372,3.468c1.78,2.604,3.681,5.355,5.701,8.251h13.233V68.417z
		 M203.085,27.479h-11.6v41.735h11.6V27.479z M187.461,38.979c-0.452-2.644-1.236-4.81-2.352-6.497
		c-1.117-1.687-2.631-2.943-4.544-3.767c-1.914-0.823-4.305-1.236-7.175-1.236h-23.359v19.214c0,1.887,0.438,3.242,1.315,4.066
		c0.877,0.824,2.046,1.235,3.508,1.235h12.556v-8.091h-4.903c-0.266,0-0.479-0.067-0.638-0.2c-0.158-0.132-0.239-0.479-0.239-1.036
		v-5.939h10.923c0.504,0,0.983,0.107,1.435,0.319c0.451,0.213,0.797,0.652,1.036,1.315c0.212,0.585,0.425,1.781,0.638,3.588
		c0.212,1.808,0.318,3.933,0.318,6.378c0,4.731-0.345,7.906-1.036,9.527c-0.239,0.505-0.584,0.877-1.036,1.116
		c-0.452,0.24-0.93,0.359-1.435,0.359h-22.202v9.885h22.8c2.87,0,5.267-0.438,7.195-1.315c1.926-0.877,3.481-2.198,4.663-3.966
		c1.182-1.767,2.014-3.953,2.491-6.557c0.479-2.604,0.718-5.62,0.718-9.048C188.139,44.739,187.912,41.624,187.461,38.979
		 M144.297,27.479h-20.728v9.886h9.766l-1.275,15.505c-0.293,2.897-0.996,4.864-2.113,5.9c-1.116,1.036-2.897,1.554-5.341,1.554
		h-0.398c-1.303,0-2.406-0.086-3.309-0.259c-0.903-0.172-1.628-0.499-2.172-0.977c-0.545-0.478-0.951-1.156-1.216-2.033
		c-0.266-0.877-0.426-2.019-0.479-3.428l-2.32-38.865h-11.839l2.718,38.626c0.265,3.8,0.943,6.895,2.033,9.287
		c1.09,2.392,2.751,4.186,4.983,5.382c1.355,0.717,2.923,1.209,4.703,1.475c1.78,0.265,3.84,0.398,6.179,0.398h1.714
		c3.96,0,7.195-0.665,9.707-1.992c2.511-1.329,4.47-3.295,5.879-5.899c0.77-1.408,1.342-2.97,1.714-4.684
		c0.372-1.714,0.691-3.687,0.957-5.919l2.312-21.565C145.931,28.277,145.44,27.479,144.297,27.479 M100.042,27.479h-11.6v23.957
		h11.6V27.479z M85.136,40.394c0-4.57-1.09-7.932-3.269-10.085c-2.179-2.152-5.501-3.229-9.965-3.229h-3.826
		c-1.409,0-2.658,0.153-3.747,0.458c-1.09,0.305-2.02,0.672-2.79,1.097c-0.638,0.452-1.256,1.03-1.854,1.734
		c-0.598,0.705-1.129,1.489-1.594,2.352c-0.465,0.864-0.85,1.734-1.156,2.61c-0.306,0.878-0.539,1.662-0.697,2.353h-0.16
		L52.49,27.479H40.652l6.617,19.533l-5.063,22.202h11.759l5.939-26.547c0.451-1.887,1.209-3.362,2.272-4.424
		c1.062-1.063,2.537-1.594,4.424-1.594h1.156c2.073,0,3.554,0.458,4.444,1.374c0.89,0.917,1.335,2.306,1.335,4.166v17.141h-9.846
		v9.885h21.446V40.394z M37.609,29.911v-0.519c0-1.275-0.359-1.913-1.077-1.913H15.407V14.764h-11.6V35.89
		c0,0.771,0.106,1.21,0.319,1.315c0.212,0.107,0.544,0.16,0.996,0.16h19.493l-2.432,16.821c-0.319,2.286-1.203,3.814-2.651,4.585
		c-1.449,0.77-3.05,1.156-4.804,1.156h-1.873v9.287c0.504,0.106,1.109,0.212,1.814,0.319c0.704,0.106,1.415,0.16,2.132,0.16
		c2.178,0,4.192-0.273,6.039-0.817c1.848-0.545,3.488-1.428,4.923-2.652c1.436-1.221,2.644-2.81,3.628-4.764
		c0.982-1.952,1.727-4.35,2.232-7.194l3.907-23.757C37.583,30.296,37.609,30.097,37.609,29.911"/>
</g>
<g>
	<path style="fill:#00AEEF;" d="M82.404,83.283c0.136-0.046,0.2-0.107,0.273-0.186c0.764-0.822,1.569-1.608,2.737-1.795
		c0.795-0.127,1.595-0.112,2.366,0.201c0.363,0.147,0.55,0.382,0.651,0.771c0.081,0.312,0.24,0.608,0.298,0.935
		c0.078,0.435,0.126,0.876,0.289,1.316c0.391-0.606,0.884-1.142,1.387-1.65c0.597-0.604,1.199-1.245,2.033-1.551
		c0.756-0.278,1.526-0.329,2.317-0.137c0.467,0.113,0.672,0.346,0.776,0.844c0.155,0.745,0.076,1.425-0.145,2.133
		c-0.245,0.787-0.561,1.546-0.818,2.325c-0.334,1.012-0.707,2.02-0.72,3.112c-0.007,0.596,0.168,1.126,0.501,1.609
		c0.069,0.101,0.155,0.153,0.291,0.057c0.401-0.284,0.696-0.661,1.004-1.037c0.31-0.38,0.558-0.794,0.809-1.209
		c0.405-0.669,0.806-1.34,1.201-2.015c0.606-1.035,1.228-2.056,2.073-2.922c0.372-0.381,0.706-0.803,1.105-1.152
		c0.612-0.536,1.26-1.049,2.033-1.325c0.338-0.12,0.722-0.161,1.087-0.227c0.557-0.1,1.094-0.285,1.662-0.346
		c0.576-0.061,1.116-0.004,1.678,0.165c0.405,0.121,0.782,0.331,1.182,0.41c0.688,0.137,1.126,0.606,1.554,1.06
		c0.386,0.409,0.712,0.892,0.925,1.43c0.029,0.074,0.058,0.131,0.022,0.228c-0.05,0.138-0.07,0.294,0.117,0.4
		c0.15,0.085,0.191,0.765,0.099,0.91c-0.052,0.083-0.159,0.132-0.274,0.099c-0.302-0.085-0.611-0.099-0.922-0.128
		c-0.176-0.016-0.228,0.039-0.299,0.166c-0.302,0.538-0.533,1.116-0.898,1.618c-0.438,0.603-0.798,1.256-1.128,1.918
		c-0.242,0.485-0.417,1.012-0.396,1.583c0.023,0.612,0.53,0.865,1,0.585c0.442-0.263,0.951-0.397,1.355-0.726
		c0.512-0.418,1.102-0.722,1.627-1.125c0.257-0.197,0.468-0.461,0.783-0.599c0.205-0.09,0.331-0.313,0.16-0.515
		c-0.176-0.209-0.165-0.468-0.278-0.686c-0.069-0.134,0.099-0.131,0.097-0.197c-0.003-0.133,0.03-0.249-0.03-0.406
		c-0.124-0.325,0.021-0.696,0.149-0.993c0.068-0.158,0.224-0.243,0.087-0.434c-0.008-0.011-0.024-0.107,0.041-0.079
		c0.321,0.135,0.024-0.133,0.104-0.165c0.016-0.007-0.019-0.149-0.005-0.154c0.29-0.1,0.306-0.301,0.201-0.538
		c-0.071-0.161-0.026-0.207,0.139-0.194c0.094,0.007,0.108-0.093,0.073-0.13c-0.362-0.372-0.098-0.719,0.094-1.005
		c0.146-0.217,0.22-0.456,0.269-0.677c0.111-0.497,0.38-0.908,0.604-1.342c0.141-0.272,0.239-0.559,0.377-0.83
		c0.163-0.318,0.334-0.63,0.501-0.946c0.039-0.075,0.09-0.186,0.178-0.102c0.222,0.211,0.205-0.035,0.28-0.124
		c0.064-0.076-0.082-0.272,0.154-0.254c0.037,0.003,0.001-0.09-0.039-0.122c-0.171-0.136-0.181-0.15-0.053-0.331
		c0.155-0.219,0.254-0.475,0.459-0.664c0.075-0.069,0.094-0.198,0.14-0.301c0.124-0.003,0.115,0.259,0.253,0.153
		c0.152-0.116,0.226-0.306,0.273-0.495c0.024-0.097-0.336-0.017-0.106-0.23c0.096-0.089,0.159-0.215,0.233-0.326
		c0.242-0.362,0.441-0.747,0.734-1.083c0.231-0.265,0.51-0.512,0.638-0.87c0.055-0.152,0.192-0.294,0.326-0.395
		c0.528-0.402,0.896-0.969,1.425-1.366c0.497-0.373,1.061-0.649,1.674-0.699c0.594-0.049,1.167,0.181,1.69,0.452
		c0.375,0.194,0.678,1.293,0.523,1.695c-0.024,0.063,0.015,0.094,0.024,0.135c0.141,0.581,0.039,1.12-0.248,1.639
		c-0.073,0.131-0.074,0.301-0.14,0.437c-0.093,0.19-0.179,0.167-0.206-0.079c-0.066,0.17-0.066,0.306-0.063,0.442
		c0.005,0.281-0.302,0.401-0.341,0.659c-0.06,0.399-0.425,0.647-0.51,1.033c-0.013,0.059-0.008,0.122-0.015,0.25
		c0.08-0.176,0.201-0.152,0.326-0.172c-0.304,0.124-0.129,0.483-0.392,0.662c-0.405,0.275-0.748,0.627-0.891,1.127
		c-0.022,0.078-0.1,0.152-0.17,0.203c-0.1,0.072-0.164,0.115-0.104,0.27c0.031,0.08,0.168,0.368-0.181,0.306
		c-0.06-0.011-0.055,0.146-0.036,0.156c0.227,0.121,0.036,0.242-0.013,0.329c-0.111,0.197-0.245,0.437-0.407,0.532
		c-0.202,0.119-0.207,0.504-0.548,0.405c-0.026,0.095-0.173,0.136-0.098,0.286c0.025,0.05-0.06,0.166-0.109,0.243
		c-0.077,0.121-0.275,0.181-0.178,0.392c0.007,0.016-0.05,0.217-0.205,0.183c-0.049-0.011-0.092-0.001-0.089,0.051
		c0.023,0.362-0.253,0.548-0.44,0.795c-0.138,0.183-0.362,0.341-0.294,0.636c0.014,0.06-0.065,0.142-0.101,0.214
		c-0.31-0.264-0.294,0.192-0.484,0.224c-0.156,0.026-0.185,0.242-0.357,0.316c-0.107,0.046-0.061,0.225,0.168,0.245
		c-0.185,0.07-0.434,0.005-0.309,0.341c0.052,0.141-0.259,0.278-0.385,0.444c-0.318,0.419-0.745,0.747-1.13,1.095
		c-0.239,0.217-0.405,0.566-0.799,0.635c0.474,0.531,0.968,0.967,1.589,1.286c0.436,0.224,0.87,0.436,1.335,0.572
		c0.511,0.15,1.036,0.242,1.57,0.3c0.582,0.063,1.161,0.119,1.747,0.127c0.488,0.007,0.967-0.059,1.451-0.086
		c0.32-0.018,0.638-0.103,0.957-0.107c0.566-0.007,1.108-0.161,1.664-0.224c0.656-0.074,1.312-0.165,1.958-0.297
		c0.572-0.116,1.154-0.147,1.727-0.277c0.308-0.07,0.647-0.23,0.996-0.108c0.046,0.016,0.119-0.025,0.173-0.051
		c0.493-0.242,1.022-0.136,1.592-0.207c-0.196,0.303-0.448,0.481-0.708,0.501c-0.849,0.064-1.597,0.487-2.422,0.626
		c-0.355,0.06-0.705,0.145-1.058,0.212c-0.111,0.021-0.233-0.003-0.282,0.145c-0.021,0.064-0.084,0.065-0.113,0.002
		c-0.038-0.081-0.083-0.088-0.142-0.033c-0.36,0.335-0.836,0.203-1.253,0.309c-0.378,0.096-0.785,0.042-1.15,0.242
		c-0.146,0.08-0.339,0.076-0.512,0.103c-1.752,0.265-3.516,0.19-5.277,0.185c-0.254-0.001-0.507-0.093-0.763-0.118
		c-0.481-0.048-0.961-0.13-1.418-0.268c-0.562-0.17-1.161-0.279-1.629-0.687c-0.152-0.132-0.381-0.026-0.551-0.17
		c-0.241-0.204-0.467-0.425-0.717-0.621c-0.109-0.086-0.246-0.053-0.258-0.039c-0.326,0.391-0.797,0.573-1.201,0.848
		c-0.299,0.203-0.582,0.424-0.903,0.598c-0.269,0.145-0.531,0.238-0.834,0.213c-0.042-0.004-0.093-0.015-0.125,0.003
		c-0.481,0.27-1.024,0.363-1.536,0.542c-0.076,0.027-0.166,0.021-0.25,0.021c-0.69-0.003-1.391,0.075-2.059-0.135
		c-0.518-0.162-1.01-0.41-1.274-0.932c-0.062-0.122-0.117-0.124-0.206-0.069c-0.921,0.558-1.935,0.721-2.991,0.691
		c-0.576-0.016-1.16,0.081-1.726-0.068c-0.32-0.084-0.643-0.155-0.957-0.29c-0.484-0.207-0.792-0.556-1.062-0.971
		c-0.103-0.158-0.198-0.124-0.319,0.001c-0.333,0.345-0.611,0.742-1.011,1.023c-0.162,0.114-0.385,0.1-0.515,0.267
		c0.011,0.019,0.018,0.037,0.03,0.051c0.092,0.109,0.356,0.02,0.325,0.256c-0.028,0.215-0.224,0.295-0.397,0.37
		c-0.42,0.184-0.863,0.096-1.284,0.043c-0.548-0.069-1.115-0.121-1.621-0.368c-0.517-0.252-0.993-0.554-1.324-1.066
		c-0.346-0.537-0.543-1.133-0.533-1.733c0.01-0.602,0.042-1.221,0.231-1.824c0.129-0.411,0.24-0.833,0.365-1.249
		c0.185-0.619,0.438-1.214,0.634-1.828c0.167-0.521,0.311-1.05,0.476-1.611c-0.249,0.053-0.338,0.233-0.466,0.356
		c-0.493,0.471-0.925,1-1.32,1.551c-0.308,0.429-0.608,0.867-0.875,1.329c-0.514,0.889-1.014,1.784-1.488,2.695
		c-0.456,0.875-0.912,1.749-1.43,2.59c-0.069,0.111-0.153,0.198-0.241,0.285c-0.129,0.127-0.228,0.245-0.23,0.454
		c-0.002,0.201-0.108,0.372-0.37,0.376c-0.165,0.003-0.328,0.069-0.494,0.092c-0.426,0.06-0.843-0.088-1.269-0.063
		c-0.028,0.002-0.062-0.036-0.087-0.03c-0.533,0.129-0.609-0.327-0.756-0.634c-0.079-0.164-0.036-0.402,0.145-0.551
		c0.379-0.313,0.45-0.769,0.562-1.207c0.028-0.11,0.041-0.228,0.091-0.326c0.195-0.382,0.193-0.825,0.362-1.206
		c0.284-0.64,0.408-1.326,0.635-1.983c0.165-0.478,0.306-0.976,0.427-1.475c0.15-0.619,0.124-1.243,0.135-1.868
		c0.004-0.191-0.038-0.371-0.067-0.556c-0.055-0.351-0.196-0.419-0.463-0.199c-0.196,0.162-0.404,0.299-0.615,0.438
		c-0.229,0.151-0.535,0.379-0.607,0.582c-0.151,0.425-0.545,0.599-0.75,0.956c-0.226,0.394-0.401,0.831-0.729,1.161
		c-0.151,0.152-0.136,0.399-0.247,0.515c-0.164,0.171-0.169,0.385-0.281,0.556c-0.235,0.357-0.282,0.819-0.572,1.129
		c-0.303,0.324-0.524,0.705-0.733,1.075c-0.185,0.326-0.489,0.591-0.535,1.024c-0.033,0.317-0.248,0.618-0.396,0.919
		c-0.295,0.599-0.606,1.194-0.591,1.887c0.004,0.18-0.071,0.209-0.224,0.202c-0.337-0.014-0.659,0.095-0.979,0.142
		c-0.33,0.048-0.742,0.095-1.101-0.112c-0.22-0.126-0.276-0.288-0.229-0.49c0.204-0.871,0.287-1.765,0.545-2.627
		c0.186-0.623,0.433-1.22,0.64-1.832c0.155-0.457,0.332-0.902,0.515-1.346c0.339-0.822,0.563-1.684,0.781-2.541
		c0.152-0.599,0.036-1.237,0.042-1.858c0.002-0.167-0.129-0.121-0.197-0.056c-0.259,0.246-0.714,0.228-0.844,0.673
		c-0.035,0.119-0.178,0.315-0.401,0.356c-0.085,0.016-0.206,0.127-0.218,0.3c-0.007,0.094-0.046,0.32-0.271,0.287
		c-0.018-0.003-0.175,0.343-0.176,0.387c-0.004,0.113-0.132,0.095-0.179,0.187c-0.264,0.514-0.647,0.94-1.019,1.38
		c-0.298,0.351-0.609,0.696-0.871,1.085c-0.32,0.474-0.534,1.022-0.901,1.45c-0.489,0.571-0.94,1.182-1.517,1.674
		c-0.162,0.138-0.277,0.312-0.432,0.458c-0.574,0.541-1.299,0.737-2.016,0.958c-0.226,0.07-0.472,0.078-0.691,0.16
		c-0.647,0.243-1.349-0.101-1.687-0.628c-0.113-0.177-0.228-0.364-0.365-0.532c-0.115-0.142-0.161-0.32-0.189-0.515
		c-0.062-0.426-0.172-0.847-0.279-1.265c-0.035-0.138-0.018-0.271-0.027-0.406c-0.005-0.073-0.038-0.132-0.094-0.152
		c-0.092-0.032-0.071,0.087-0.104,0.106c-0.369,0.218-0.375,0.684-0.66,0.952c-0.279,0.263-0.563,0.522-0.864,0.758
		c-0.482,0.377-1.031,0.659-1.58,0.911c-0.749,0.344-1.497,0.679-2.354,0.765c-0.925,0.093-1.81,0.005-2.668-0.28
		c-0.813-0.269-1.564-0.67-2.237-1.238c-0.507-0.427-0.949-0.891-1.377-1.393c-0.587-0.688-0.978-1.483-1.408-2.26
		c-0.3-0.542-0.518-1.122-0.683-1.712c-0.178-0.638-0.305-1.289-0.361-1.959c-0.065-0.784,0.051-1.553,0.073-2.328
		c0.024-0.837,0.153-1.668,0.293-2.482c0.097-0.567,0.176-1.166,0.406-1.719c0.147-0.355,0.244-0.731,0.337-1.109
		c0.128-0.519,0.359-1.014,0.573-1.508c0.259-0.598,0.525-1.196,0.827-1.773c0.348-0.665,0.708-1.328,1.121-1.955
		c0.26-0.395,0.531-0.788,0.788-1.185c0.164-0.253,0.237-0.563,0.457-0.791c0.037-0.038,0.031-0.128-0.061-0.139
		c-0.062-0.007-0.136-0.021-0.188,0.003c-0.441,0.2-0.92,0.235-1.387,0.298c-0.5,0.068-0.936,0.315-1.414,0.439
		c-0.686,0.178-1.233,0.635-1.86,0.932c-0.411,0.195-0.847,0.241-1.285,0.282c-0.251,0.023-0.506,0.006-0.76,0.004
		c-0.313-0.002-0.621-0.258-0.617-0.564c0.003-0.212,0.165-0.393,0.338-0.494c0.636-0.371,1.295-0.694,1.976-0.981
		c0.702-0.296,1.419-0.544,2.157-0.69c0.736-0.145,1.457-0.376,2.226-0.389c0.574-0.01,1.147-0.149,1.717-0.25
		c0.129-0.023,0.208-0.159,0.27-0.286c0.223-0.462,0.479-0.926,0.785-1.315c0.429-0.544,0.683-1.184,1.124-1.722
		c0.565-0.688,0.989-1.49,1.491-2.232c0.524-0.774,1.114-1.504,1.636-2.277c0.418-0.618,0.92-1.175,1.297-1.822
		c0.162-0.279,0.438-0.472,0.616-0.749c0.39-0.608,0.835-1.181,1.174-1.822c0.043-0.081,0.063-0.174,0.085-0.264
		c0.136-0.561,0.321-0.744,0.891-0.726c0.45,0.014,0.904,0.088,1.331,0.25c0.258,0.097,0.384,0.47,0.312,0.722
		c-0.159,0.556-0.497,0.999-0.81,1.471c-0.243,0.366-0.507,0.712-0.771,1.06c-0.396,0.519-0.791,1.039-1.208,1.542
		c-0.313,0.378-0.557,0.813-0.848,1.211c-0.544,0.746-1.119,1.47-1.646,2.228c-0.525,0.755-1.016,1.534-1.503,2.315
		c-0.232,0.371-0.544,0.689-0.74,1.075c-0.173,0.339-0.412,0.633-0.579,0.972c-0.067,0.136-0.019,0.201,0.124,0.191
		c0.396-0.027,0.791,0.005,1.191-0.034c0.278-0.027,0.586-0.105,0.877,0.021c0.174,0.075,0.348-0.062,0.521-0.045
		c0.593,0.057,1.197-0.1,1.783,0.113c0.154,0.056,0.321-0.052,0.49-0.061c0.662-0.035,1.304,0.234,1.966,0.131
		c0.561-0.087,1.117,0.029,1.676,0.01c0.126-0.004,0.246,0.06,0.385,0.061c0.148,0,0.27,0.066,0.441-0.023
		c0.124-0.064,0.335,0.022,0.502,0.063c0.211,0.052,0.406,0.113,0.636,0.033c0.16-0.056,0.337-0.019,0.513,0.103
		c0.231,0.16,0.545,0.096,0.818,0.119c0.205,0.018,0.317,0.098,0.432,0.23c0.075,0.086,0.138,0.185,0.253,0.228
		c0.147,0.055,0.17,0.038,0.193-0.125c0.012-0.083,0.072-0.124,0.155-0.125c0.102-0.001,0.204,0,0.352,0
		c-0.096,0.11-0.162,0.186-0.254,0.292c0.28,0.02,0.522,0.103,0.787,0.129c0.153,0.015,0.385,0.113,0.567,0.206
		c-0.026,0.039,0.021,0.066,0.028,0.057c0.219-0.288,0.313,0.049,0.535,0.109c-0.624,0.114-1.176,0.123-1.741,0.039
		c-0.508-0.075-1.023-0.096-1.536-0.137c-0.856-0.068-1.712-0.111-2.57-0.146c-0.765-0.031-1.53-0.129-2.299-0.105
		c-0.998,0.031-1.991-0.122-2.989-0.052c-0.944,0.066-1.891,0.02-2.835,0.059c-0.579,0.024-1.156,0.124-1.739,0.116
		c-0.092-0.001-0.156,0.025-0.209,0.105c-0.257,0.388-0.504,0.783-0.759,1.171c-0.273,0.415-0.527,0.845-0.787,1.266
		c-0.237,0.383-0.46,0.785-0.674,1.187c-0.287,0.542-0.601,1.071-0.876,1.62c-0.156,0.312-0.3,0.636-0.46,0.942
		c-0.202,0.385-0.234,0.821-0.483,1.195c-0.252,0.379-0.312,0.861-0.428,1.308c-0.23,0.881-0.386,1.775-0.558,2.668
		c-0.163,0.847-0.179,1.699-0.196,2.55c-0.008,0.424-0.06,0.87,0.037,1.279c0.134,0.564,0.178,1.148,0.438,1.694
		c0.14,0.294,0.217,0.635,0.373,0.934c0.128,0.246,0.225,0.512,0.418,0.721c0.172,0.187,0.266,0.428,0.392,0.641
		c0.522,0.884,1.249,1.56,2.052,2.166c0.566,0.426,1.185,0.715,1.893,0.879c0.489,0.113,0.967,0.212,1.465,0.222
		c0.654,0.013,1.158-0.3,1.593-0.751c0.575-0.598,1.067-1.267,1.571-1.922c0.295-0.385,0.57-0.799,0.821-1.209
		c0.343-0.559,0.744-1.072,1.093-1.623c0.339-0.535,0.533-1.132,0.738-1.726c0.159-0.463,0.309-0.928,0.461-1.393
		c0.089-0.271,0.235-0.548,0.397-0.782c0.137-0.198,0.169-0.379,0.147-0.582c-0.041-0.367,0.169-0.518,0.46-0.662
		c0.373-0.185,0.757-0.308,1.163-0.387c0.41-0.08,1.043,0.253,1.158,0.648c0.027,0.094,0.032,0.236-0.02,0.306
		c-0.487,0.649-0.652,1.435-0.948,2.165c-0.226,0.558-0.501,1.106-0.636,1.687c-0.13,0.559-0.349,1.1-0.362,1.693
		c-0.009,0.406-0.132,0.811-0.204,1.216c-0.154,0.863-0.112,1.699,0.149,2.533c0.081,0.26,0.195,0.483,0.359,0.706
		c0.152,0.205,0.217,0.134,0.32,0.009c0.49-0.594,0.969-1.197,1.466-1.785c0.521-0.617,0.856-1.357,1.345-1.999
		c0.314-0.412,0.65-0.803,0.961-1.214c0.312-0.413,0.569-0.873,0.867-1.302c0.444-0.641,0.942-1.222,1.53-1.746
		c0.717-0.638,1.553-0.999,2.448-1.225c0.479-0.121,0.998-0.14,1.501-0.085c0.501,0.055,1.005,0.567,1.087,1.171
		c0.029,0.213,0.204,0.359,0.164,0.596C82.306,82.839,82.377,83.052,82.404,83.283z M115.152,83.363
		c-0.02,0.029-0.04,0.057-0.059,0.086c0.036,0.004,0.072,0.009,0.108,0.013c0.022,0.07,0.043,0.134,0.01,0.214
		c-0.188,0.461-0.395,0.913-0.525,1.398c-0.164,0.614-0.37,1.218-0.393,1.931c0.259-0.27,0.498-0.495,0.71-0.742
		c0.453-0.529,0.916-1.05,1.376-1.572c0.432-0.49,0.843-1.001,1.201-1.535c0.484-0.722,0.93-1.476,1.433-2.185
		c0.39-0.549,0.705-1.146,1.016-1.727c0.416-0.778,0.804-1.586,1.104-2.429c0.314-0.882,0.52-1.768,0.463-2.707
		c-0.006-0.095,0.015-0.22-0.089-0.246c-0.111-0.028-0.219,0.043-0.287,0.145c-0.069,0.102-0.112,0.234-0.204,0.306
		c-0.62,0.488-1.093,1.12-1.548,1.74c-0.489,0.667-1.03,1.307-1.42,2.05c-0.189,0.359-0.475,0.667-0.673,1.022
		c-0.153,0.276-0.368,0.511-0.497,0.797c-0.197,0.435-0.373,0.878-0.602,1.299c-0.176,0.324-0.407,0.609-0.507,0.987
		C115.658,82.627,115.572,83.094,115.152,83.363z M100.061,89.627c-0.058,1.01,0.814,1.65,1.56,1.552
		c0.553-0.073,1.046-0.352,1.479-0.727c0.567-0.49,1.041-1.066,1.516-1.638c0.434-0.522,0.853-1.057,1.175-1.663
		c0.23-0.433,0.498-0.845,0.729-1.28c0.225-0.424,0.383-0.869,0.566-1.306c0.185-0.442,0.214-0.935,0.427-1.37
		c0.037-0.076,0.014-0.134-0.038-0.199c-0.408-0.512-1.244-0.773-1.88-0.545c-0.581,0.208-1.108,0.531-1.619,0.874
		c-0.326,0.218-0.676,0.422-0.941,0.703c-0.401,0.424-0.843,0.812-1.164,1.316c-0.22,0.345-0.496,0.652-0.675,1.029
		c-0.145,0.307-0.36,0.582-0.492,0.893c-0.164,0.383-0.281,0.786-0.406,1.184C100.178,88.832,100.039,89.214,100.061,89.627z
		 M116.372,77.354c-0.018-0.008-0.036-0.023-0.051-0.02c-0.015,0.003-0.041,0.026-0.039,0.035c0.007,0.032,0.033,0.044,0.063,0.025
		C116.358,77.386,116.363,77.368,116.372,77.354z"/>
	<path style="fill:#00AEEF;" d="M4.258,75.636c0.22-0.295,0.528-0.524,0.672-0.874c0.07-0.171,0.236-0.014,0.327-0.12
		c0.376-0.438,0.876-0.768,1.171-1.27c0.104-0.177,0.253-0.327,0.329-0.516c0.06-0.152,0.131-0.251,0.314-0.22
		c0.212,0.036,0.226-0.2,0.289-0.288c0.396-0.551,0.873-1.015,1.44-1.366c0.201-0.124,0.362-0.245,0.477-0.437
		c0.12-0.201,0.373-0.074,0.525-0.237c0.134-0.143,0.431-0.13,0.404-0.432c-0.001-0.007,0.014-0.022,0.021-0.021
		c0.39,0.034,0.421-0.415,0.731-0.536c0.315-0.123,0.591-0.369,0.901-0.536c0.161-0.087,0.308-0.176,0.497-0.222
		c0.12-0.029,0.268-0.196,0.405-0.266c0.713-0.363,1.425-0.737,2.17-1.021c1.004-0.383,2.043-0.674,3.097-0.889
		c0.426-0.087,0.869-0.081,1.3-0.146c0.891-0.133,1.762-0.027,2.622,0.196c0.635,0.165,1.249,0.397,1.837,0.693
		c0.177,0.089,0.35,0.207,0.18,0.444c-0.095,0.133,0.113,0.162,0.08,0.283c-0.257,0.069-0.518,0.161-0.786,0.206
		c-0.212,0.035-0.448,0.082-0.644-0.046c-0.298-0.194-0.643-0.277-0.95-0.443c-0.265-0.144-0.566-0.17-0.842-0.176
		c-0.937-0.023-1.87-0.039-2.803,0.198c-0.569,0.145-1.12,0.343-1.667,0.532c-0.413,0.142-0.821,0.371-1.22,0.587
		c-0.345,0.187-0.733,0.31-1.087,0.499c-0.254,0.135-0.502,0.259-0.711,0.47c-0.104,0.105-0.298,0.098-0.438,0.204
		c-0.249,0.188-0.511,0.352-0.729,0.585c-0.083,0.089-0.185,0.28-0.383,0.167c-0.248,0.422-0.837,0.484-1.027,0.968
		c-0.011,0.027-0.021,0.065-0.043,0.076c-0.688,0.356-1.075,1.057-1.704,1.487c-0.316,0.216-0.484,0.597-0.772,0.865
		c-0.287,0.266-0.503,0.608-0.765,0.904c-0.112,0.126-0.224,0.247-0.28,0.408c-0.058,0.17-0.182,0.248-0.358,0.252
		c0.015,0.125,0.236,0.039,0.183,0.207c-0.231-0.107,0.015,0.425-0.334,0.241c-0.106-0.056-0.284,0.206-0.384,0.352
		c-0.024,0.035-0.242,0.181-0.023,0.31c0.123,0.072-0.013,0.191-0.052,0.23c-0.229,0.229-0.433,0.469-0.543,0.782
		c-0.018,0.051-0.115,0.073-0.175,0.109c-0.018-0.053,0.024-0.124-0.043-0.158c-0.011-0.006-0.052,0.03-0.068,0.054
		c-0.048,0.075,0.018,0.108,0.061,0.148c0.043,0.074,0.094,0.201-0.015,0.202c-0.342,0.005-0.128,0.459-0.418,0.484
		c0.101,0.216-0.111,0.342-0.147,0.518c-0.037,0.181-0.134,0.327-0.238,0.47c-0.187,0.258-0.368,0.512-0.31,0.861
		c0.009,0.055-0.054,0.139-0.106,0.182c-0.148,0.124-0.358,0.194-0.196,0.468c0.047,0.079-0.127,0.171-0.208,0.249
		c-0.086,0.083-0.245,0.136-0.106,0.3c0.012,0.014,0,0.066-0.018,0.083c-0.377,0.358-0.314,0.842-0.335,1.284
		c-0.012,0.251-0.222,0.209-0.322,0.335c0.102,0.099,0.328,0.189,0.046,0.336c-0.047,0.025-0.015,0.051,0.021,0.085
		c0.097,0.093,0.088,0.236,0.011,0.307c-0.201,0.187-0.081,0.394-0.074,0.593c0.012,0.339-0.086,0.666-0.085,1.008
		c0,0.412,0.002,0.821,0.08,1.223c0.093,0.485,0.178,0.976,0.331,1.444c0.23,0.701,0.578,1.348,1.025,1.944
		c0.592,0.789,1.311,1.443,2.128,1.973c0.407,0.264,0.83,0.517,1.302,0.696c0.605,0.229,1.211,0.47,1.824,0.664
		c0.643,0.203,1.313,0.347,1.996,0.404c0.547,0.045,1.092,0.133,1.635,0.217c0.093,0.014,0.185,0.03,0.278,0.03
		c0.991-0.003,1.99,0.067,2.971-0.077c0.712-0.105,1.429-0.202,2.135-0.36c0.789-0.177,1.564-0.403,2.345-0.607
		c0.566-0.148,1.132-0.298,1.685-0.483c0.265-0.089,0.534-0.192,0.79-0.333c0.18-0.099,0.43-0.168,0.657-0.227
		c0.354-0.091,0.667-0.265,0.994-0.425c0.456-0.224,0.911-0.463,1.388-0.645c0.292-0.112,0.53-0.333,0.827-0.413
		c0.497-0.135,0.842-0.516,1.268-0.762c0.528-0.305,1.012-0.706,1.49-1.101c0.563-0.466,1.096-0.968,1.604-1.486
		c0.306-0.312,0.684-0.582,0.906-0.95c0.369-0.613,0.81-1.18,1.123-1.832c0.232-0.483,0.498-0.953,0.734-1.436
		c0.379-0.779,0.611-1.608,0.783-2.449c0.089-0.433,0.06-0.89,0.137-1.332c0.018-0.101-0.022-0.158-0.136-0.153
		c-0.639,0.027-1.28,0.026-1.915,0.087c-0.42,0.04-0.835,0.067-1.248-0.005c-0.109-0.019-0.178,0.041-0.266,0.041
		c-0.855-0.004-1.71-0.005-2.564-0.023c-0.202-0.004-0.4,0.081-0.602,0.012c-0.007-0.079,0.096-0.02,0.11-0.111
		c-0.269,0.015-0.528,0.081-0.801,0.015c-0.657-0.159-1.339-0.08-2.015-0.229c-0.562-0.123-1.163-0.31-1.77-0.171
		c-0.053,0.012-0.104-0.001-0.144-0.044c-0.27-0.285-0.635-0.257-0.973-0.255c-0.174,0.001-0.275-0.103-0.415-0.144
		c-0.462-0.136-0.957-0.204-1.369-0.453c-0.277-0.167-0.578-0.287-0.862-0.408c-0.367-0.157-0.536-0.467-0.787-0.709
		c-0.215-0.207-0.385-0.457-0.695-0.547c-0.052-0.015-0.085-0.112-0.118-0.175c-0.195-0.372-0.223-0.805-0.41-1.176
		c-0.099-0.198-0.098-0.419-0.199-0.618c-0.028-0.055-0.038-0.333,0.014-0.401c0.145-0.187-0.034-0.246-0.072-0.359
		c-0.026-0.078-0.296-0.148-0.021-0.259c0.005-0.002-0.065-0.159-0.08-0.247c-0.012-0.072-0.062-0.16,0.055-0.212
		c0.169-0.077,0.181-0.105,0.064-0.216c-0.12-0.114-0.041-0.208-0.007-0.311c0.096-0.291,0.114-0.66,0.308-0.856
		c0.389-0.395,0.598-0.969,1.196-1.182c0.143-0.051,0.426-0.132,0.485-0.388c0.006-0.026,0.067-0.047,0.106-0.055
		c0.707-0.147,1.314-0.568,2.016-0.735c0.211-0.05,0.427-0.08,0.631-0.137c0.508-0.14,1.03-0.209,1.537-0.329
		c0.636-0.151,1.264-0.168,1.899-0.157c0.344,0.006,0.691-0.033,1.035,0.053c0.771,0.194,1.57,0.232,2.342,0.443
		c0.466,0.127,0.928,0.277,1.358,0.471c0.347,0.157,0.673,0.4,1.019,0.586c0.323,0.174,0.612,0.4,0.942,0.566
		c0.276,0.139,0.497,0.385,0.759,0.557c0.397,0.262,0.609,0.716,1.042,0.952c0.123,0.067,0.199,0.299,0.288,0.459
		c0.153,0.277,0.304,0.544,0.617,0.672c0.136,0.056,0.198,0.201,0.249,0.312c0.185,0.401,0.366,0.788,0.671,1.13
		c0.207,0.232,0.271,0.589,0.41,0.886c0.091,0.195-0.24-0.02-0.164,0.187c0.063,0.172,0.326-0.057,0.235,0.07
		c-0.201,0.282,0.152,0.288,0.172,0.465c0.022,0.2,0.01,0.412,0.069,0.615c0.045,0.152,0.139,0.305-0.01,0.484
		c-0.097,0.117,0.083,0.182,0.164,0.191c0.207,0.023,0.418,0.027,0.628-0.008c0.822-0.138,1.656-0.224,2.463-0.419
		c0.495-0.12,1.011-0.022,1.487-0.218c0.056-0.023,0.084,0.053,0.127,0.065c0.307,0.09,0.605,0.087,0.896-0.072
		c0.067-0.037,0.163-0.029,0.246-0.029c0.412-0.003,0.84-0.075,1.231,0.015c0.709,0.163,1.457,0.105,2.14,0.424
		c0.341,0.159,0.717,0.244,1.076,0.368c0.139,0.048,0.232,0.129,0.337,0.205c0.4,0.286,0.863,0.486,1.218,0.829
		c0.343,0.332,0.685,0.665,0.984,1.045c0.21,0.268,0.445,0.527,0.681,0.78c0.176,0.188,0.282,0.447,0.448,0.627
		c0.152,0.165,0.203,0.367,0.335,0.525c0.232,0.279,0.371,0.596,0.475,0.941c0.076,0.254,0.208,0.486,0.281,0.748
		c0.159,0.575,0.123,1.156,0.001,1.702c-0.106,0.478-0.182,0.994-0.478,1.42c-0.028,0.04-0.024,0.108-0.057,0.138
		c-0.229,0.212-0.47,0.391-0.61,0.704c-0.107,0.24-0.501,0.193-0.67,0.423c-0.228,0.31-0.607,0.424-0.867,0.697
		c-0.161,0.169-0.397,0.203-0.638,0.192c-0.193-0.009-0.426-0.075-0.475,0.253c-0.011,0.074-0.204,0.16-0.349,0.095
		c-0.167-0.074-0.3-0.04-0.396,0.118c-0.058,0.096-0.149,0.104-0.247,0.098c-0.299-0.018-0.571,0.059-0.824,0.217
		c-0.06,0.037-0.137,0.066-0.205,0.065c-0.84-0.015-1.65,0.235-2.482,0.277c-0.404,0.021-0.815,0.065-1.222-0.042
		c-0.226-0.059-0.464,0.008-0.698,0.003c-0.638-0.015-1.261-0.148-1.864-0.297c-0.408-0.1-0.837-0.203-1.239-0.387
		c-0.329-0.151-0.662-0.304-0.988-0.481c-0.103,0.573-0.332,1.075-0.51,1.595c-0.155,0.453-0.473,0.844-0.572,1.302
		c-0.086,0.4-0.264,0.752-0.376,1.129c-0.06,0.2-0.162,0.356-0.244,0.533c-0.098,0.211-0.092,0.447-0.198,0.671
		c-0.174,0.366-0.201,0.801-0.364,1.175c-0.306,0.707-0.42,1.464-0.651,2.188c-0.231,0.723-0.328,1.467-0.478,2.203
		c-0.059,0.291-0.235,0.433-0.529,0.382c-0.04-0.007-0.108-0.028-0.119-0.012c-0.185,0.266-0.501,0.095-0.708,0.208
		c-0.363,0.198-0.732,0.046-1.094,0.089c-0.316,0.037-0.512-0.254-0.524-0.725c-0.008-0.322-0.036-0.646,0.053-0.969
		c0.105-0.382,0.169-0.773,0.132-1.174c-0.015-0.167,0.152-0.267,0.164-0.424c0.018-0.231,0.383-0.382,0.154-0.669
		c0.211-0.203,0.167-0.496,0.264-0.737c0.148-0.369,0.244-0.756,0.38-1.126c0.193-0.527,0.362-1.064,0.617-1.574
		c0.137-0.274,0.189-0.624,0.288-0.934c0.156-0.49,0.39-0.955,0.533-1.448c0.109-0.375,0.32-0.713,0.381-1.098
		c0.027-0.172,0.192-0.22,0.245-0.351c0.223-0.551,0.659-1.001,0.808-1.575c0.165-0.638,0.563-1.157,0.79-1.758
		c0.154-0.41,0.284-0.829,0.449-1.235c0.123-0.302,0.327-0.576,0.42-0.885c0.196-0.655,0.549-1.252,0.664-1.938
		c0.036-0.215,0.189-0.425,0.332-0.603c0.374-0.47,0.622-1.014,0.93-1.522c0.099-0.163,0.098-0.384,0.298-0.465
		c-0.407-0.144-0.811-0.132-1.2-0.048c-0.389,0.085-0.822-0.009-1.173,0.284c0.129,0.114,0.202,0.261,0.167,0.451
		c-0.03,0.163-0.057,0.311,0.043,0.485c0.05,0.086,0.156,0.352-0.122,0.431c-0.065,0.019-0.013,0.079-0.009,0.126
		c0.036,0.45-0.052,0.887-0.108,1.332c-0.054,0.422-0.316,0.727-0.405,1.118c-0.042,0.181-0.131,0.416-0.259,0.605
		c-0.122,0.18-0.199,0.385-0.238,0.623c-0.043,0.263-0.254,0.498-0.393,0.744c-0.025,0.045-0.089,0.09-0.083,0.126
		c0.081,0.46-0.295,0.727-0.46,1.079c-0.134,0.285-0.164,0.615-0.387,0.863c-0.259,0.288-0.506,0.588-0.754,0.886
		c-0.064,0.077-0.204,0.119-0.127,0.272c0.025,0.049-0.043,0.102-0.088,0.115c-0.447,0.128-0.792,0.391-1.071,0.759
		c-0.076,0.1-0.246,0.075-0.326,0.201c-0.019,0.03-0.08,0.023-0.08,0.098c0,0.098,0.233,0.063,0.114,0.183
		c-0.119,0.121-0.197,0.284-0.365,0.361c-0.092,0.042-0.175,0.112-0.248,0.183c-0.315,0.306-0.703,0.502-1.08,0.709
		c-0.448,0.246-0.811,0.623-1.3,0.805c-0.599,0.223-1.148,0.554-1.738,0.802c-0.557,0.234-1.098,0.54-1.678,0.678
		c-0.452,0.107-0.847,0.339-1.286,0.468c-0.387,0.114-0.8,0.285-1.189,0.409c-0.459,0.147-0.921,0.337-1.425,0.392
		c-0.504,0.055-0.984,0.3-1.487,0.395c-0.626,0.119-1.232,0.319-1.864,0.417c-0.395,0.061-0.802,0.06-1.182,0.225
		c-0.351,0.153-0.74,0.093-1.109,0.131c-0.557,0.058-1.104,0.18-1.666,0.222c-0.673,0.05-1.345,0.073-2.017,0.082
		c-1.02,0.013-2.037-0.084-3.042-0.239c-0.398-0.061-0.815-0.032-1.194-0.18c-0.289-0.113-0.611-0.107-0.882-0.269
		c-0.025-0.015-0.054-0.033-0.081-0.035c-0.852-0.047-1.63-0.351-2.391-0.705c-0.566-0.264-1.163-0.486-1.607-0.948
		c-0.095-0.099-0.236-0.158-0.294-0.321c-0.035-0.099-0.239-0.029-0.364-0.124c-0.688-0.519-1.293-1.115-1.791-1.82
		c-0.442-0.625-0.773-1.312-1.071-2.011c-0.273-0.64-0.391-1.322-0.394-2.025c-0.001-0.333-0.054-0.668-0.109-0.998
		c-0.026-0.155,0.023-0.287,0.052-0.427c0.082-0.401,0.183-0.844,0.132-1.21c-0.098-0.703,0.33-1.266,0.347-1.93
		c0.006-0.22,0.21-0.588,0.499-0.763c-0.053-0.033-0.122-0.076-0.164-0.103c0.204-0.255,0.357-0.553,0.375-0.865
		c0.023-0.405,0.185-0.747,0.341-1.099c0.009-0.02,0.048-0.038,0.073-0.037c0.158,0.007,0.368-0.139,0.347-0.328
		c-0.062-0.545,0.376-0.851,0.546-1.279c0.149-0.374,0.53-0.482,0.734-0.776c0.176-0.254,0.473-0.453,0.385-0.831
		c-0.01-0.042,0.011-0.076,0.065-0.085C3.98,76.341,4.34,75.982,4.39,75.75c0.022-0.104-0.044-0.06-0.083-0.068
		C4.29,75.666,4.274,75.651,4.258,75.636z M20.548,73.68c0.12,0.197,0,0.484,0.258,0.615c0.013,0.007,0.015,0.059,0.007,0.084
		c-0.072,0.202-0.075,0.204,0.084,0.286c0.087,0.045,0.172,0.098,0.184,0.198c0.063,0.521,0.461,0.836,0.788,1.154
		c0.48,0.466,1.129,0.71,1.739,0.963c0.428,0.178,0.866,0.374,1.341,0.442c0.387,0.056,0.769,0.202,1.154,0.202
		c0.507,0,1,0.087,1.491,0.159c0.763,0.11,1.529,0.18,2.294,0.224c0.911,0.052,1.828-0.006,2.741,0.018
		c0.82,0.021,1.628-0.106,2.444-0.138c0.224-0.009,0.389-0.092,0.293-0.407c-0.055-0.178-0.079-0.387-0.119-0.573
		c-0.164-0.762-0.425-1.496-0.775-2.196c-0.585-1.169-1.416-2.158-2.403-2.988c-0.62-0.521-1.359-0.912-2.113-1.233
		c-0.992-0.421-2.042-0.661-3.108-0.754c-1.231-0.107-2.456,0.01-3.65,0.365c-0.618,0.184-1.182,0.47-1.703,0.843
		c-0.075,0.053-0.204,0.197-0.173,0.206c0.281,0.084,0.014,0.149-0.002,0.21c-0.06,0.224-0.289,0.081-0.408,0.163
		c-0.021,0.137,0.183,0.18,0.041,0.387c-0.157,0.229-0.217,0.558-0.264,0.865c-0.025,0.159,0.018,0.46-0.314,0.444
		c-0.011-0.001-0.042,0.053-0.035,0.071c0.072,0.19-0.084,0.406,0.086,0.577C20.458,73.814,20.502,73.749,20.548,73.68z
		 M41.869,80.339c0.309,0.07,0.164,0.199,0.11,0.301c-0.159,0.299-0.323,0.597-0.492,0.891c-0.076,0.133-0.173,0.365-0.254,0.362
		c-0.281-0.009-0.263,0.181-0.251,0.325c0.013,0.144-0.055,0.24-0.087,0.359c-0.097,0.359-0.495,0.484-0.552,0.929
		c-0.071,0.554-0.461,1.053-0.619,1.615c-0.064,0.227-0.143,0.468-0.283,0.65c-0.335,0.437-0.427,0.966-0.616,1.457
		c-0.057,0.148-0.008,0.282,0.19,0.356c0.657,0.248,1.364,0.246,2.037,0.472c0.858,0.289,1.776,0.359,2.709,0.24
		c0.68-0.086,1.354-0.171,1.992-0.406c1.126-0.415,2.214-0.906,3.041-1.828c0.265-0.295,0.494-0.61,0.643-0.976
		c0.175-0.429,0.288-0.884,0.185-1.338c-0.161-0.716-0.425-1.392-0.778-2.047c-0.365-0.676-0.832-1.272-1.332-1.826
		c-0.512-0.567-1.122-1.073-1.852-1.364c-0.333-0.133-0.698-0.288-1.062-0.21c-0.625,0.135-1.246,0.317-1.733,0.771
		c-0.268,0.249-0.46,0.571-0.601,0.894C42.185,80.155,42.191,80.342,41.869,80.339z M6.126,76.76
		c-0.015-0.007-0.031-0.021-0.043-0.018c-0.018,0.004-0.032,0.02-0.048,0.03c0.023,0.012,0.046,0.024,0.069,0.035
		C6.111,76.791,6.118,76.776,6.126,76.76z"/>
	<path style="fill:#00AEEF;" d="M73.362,73.257c0.465,0.046,0.871,0.002,1.218,0.258c0.362,0.268,0.635,0.604,0.847,1.001
		c0.178,0.333,0.091,0.65-0.004,0.976c-0.061,0.207-0.259,0.3-0.398,0.395c-0.235,0.161-0.499,0.328-0.824,0.299
		c-0.495-0.044-0.974,0.113-1.468,0.133c-0.478,0.019-0.854-0.145-1.15-0.435c-0.185-0.181-0.231-0.518-0.193-0.814
		c0.006-0.046,0.069-0.109,0.017-0.137c-0.302-0.161-0.297-0.421-0.167-0.659c0.12-0.219,0.284-0.413,0.48-0.594
		c0.349-0.321,0.77-0.254,1.161-0.337C73.06,73.305,73.24,73.201,73.362,73.257z"/>
	<path style="fill:#00AEEF;" d="M4.307,75.682c-0.023,0.053-0.058,0.07-0.11,0.038c0.021-0.028,0.041-0.056,0.062-0.084
		C4.274,75.651,4.29,75.666,4.307,75.682z"/>
	<path style="fill:#00AEEF;" d="M115.194,83.467c0-0.02,0.003-0.04,0.008-0.06c0.034-0.012,0.069-0.024,0.103-0.037
		c0,0.025,0.01,0.06-0.002,0.075C115.276,83.476,115.243,83.53,115.194,83.467z"/>
</g>
<path style="fill:#00AEEF;" d="M197.467,19.993c-0.682,1.403-1.798,0.124-2.158-0.43c-4.125-6.348-3.987-15.924-1.07-15.143
	C198.972,5.686,198.374,18.128,197.467,19.993 M193.448,17.613c0.388,0.843,0.825,1.662,1.314,2.44c0.13,0.207,0.342,0.49,0.6,0.743
	c0.418,1.492-1.03,1.292-1.609,1.303c-7.096,0.135-13.857-7.241-10.073-10.237C186.322,9.77,190.867,14.19,193.448,17.613
	 M196.044,21.654c0.004-0.114-0.003-0.24-0.029-0.382c0.105,0.05,0.212,0.091,0.321,0.11
	C196.227,21.477,196.131,21.567,196.044,21.654 M206.641,11.46c-3.998,0.505-6.804,6.254-7.182,7.069
	c-0.443-0.063-0.929,0.265-1.147,0.807c-0.126,0.313-0.139,0.634-0.059,0.902c-0.168,0.033-0.381,0.105-0.634,0.233
	c1.276-2.662,2.57-18.97-3.593-20.425c-3.222-0.762-4.162,8.141-1.278,15.882c-3.158-3.938-7.892-8.181-10.747-5.862
	c-4.511,3.662,3.568,12.701,12.036,12.547c0.34-0.006,0.933,0.05,1.388-0.109c-0.143,0.294-0.155,0.325-0.655,0.609
	c-0.563,0.319-2.041,0.919-2.909,0.965c-0.868,0.045,1.737,1.012,4.434-0.696c1.869-1.185,2.559-1.972,2.642-2.529
	c0.435,0.045,0.905-0.279,1.12-0.81c0.147-0.363,0.138-0.738,0.011-1.026c1.7-1.274,4.897-3.192,7.517-1.985
	c2.696,1.015,1.957,3.184,1.736,3.499c-0.194,0.278-1.041,1.127-2.099,0.667c-0.911-0.395-0.9-1.299-0.508-1.658
	c0.055,0.1,0.128,0.191,0.237,0.249c0.297,0.161,0.668,0.049,0.827-0.248c0.16-0.298,0.048-0.668-0.249-0.827
	c-0.297-0.16-0.668-0.049-0.827,0.248c-0.055,0.102-0.067,0.212-0.061,0.32c-0.68,0.245-0.879,1.599,0.381,2.147
	c1.28,0.557,2.323-0.459,2.54-0.807c0.197-0.316,1.041-2.75-1.92-3.849c-2.776-1.239-6.04,0.707-7.747,1.983
	c-0.041-0.042-0.086-0.08-0.136-0.112c0.442-0.935,3.207-6.455,7.189-6.908c3.248-0.37,3.32,1.973,3.294,2.357
	c-0.022,0.338-0.305,1.503-1.448,1.659c-0.984,0.134-1.443-0.643-1.294-1.153c0.098,0.057,0.209,0.096,0.332,0.09
	c0.337-0.017,0.596-0.304,0.578-0.641s-0.305-0.596-0.642-0.578c-0.337,0.017-0.596,0.304-0.578,0.641
	c0.006,0.116,0.053,0.217,0.113,0.305c-0.454,0.563,0.078,1.823,1.44,1.637c1.384-0.189,1.748-1.597,1.753-2.007
	C210.496,13.673,210.562,10.964,206.641,11.46"/>
<path style="fill:#1C4969;" d="M248.304,85.54h-1.18v7.429h1.18V85.54z M246.396,92.871l-2.101-2.896
	c0.356-0.269,0.642-0.547,0.858-0.834c0.215-0.286,0.382-0.596,0.502-0.93c0.119-0.333,0.198-0.696,0.236-1.089
	c0.037-0.392,0.056-0.837,0.056-1.334V85.54h-1.265v0.292c0,0.378-0.004,0.733-0.014,1.064c-0.01,0.332-0.039,0.641-0.088,0.93
	c-0.05,0.288-0.134,0.557-0.254,0.806c-0.119,0.248-0.284,0.473-0.495,0.677l-2.845-3.768h-1.412v0.093l1.813,2.427
	c-0.356,0.288-0.642,0.607-0.858,0.958c-0.216,0.35-0.382,0.72-0.502,1.113c-0.119,0.393-0.199,0.802-0.236,1.228
	c-0.038,0.426-0.056,0.861-0.056,1.306v0.305h1.222v-0.277c0-0.388,0.009-0.781,0.029-1.178c0.018-0.397,0.058-0.77,0.119-1.118
	c0.06-0.348,0.156-0.667,0.287-0.958c0.131-0.291,0.312-0.524,0.542-0.698l3.077,4.229h1.384V92.871z M238.882,85.54h-1.18v4.265
	h1.18V85.54z M236.42,87.261c-0.162-0.504-0.382-0.898-0.663-1.181c-0.192-0.194-0.422-0.333-0.689-0.415
	c-0.267-0.082-0.564-0.125-0.893-0.125h-2.733v1.178h2.706c0.154,0,0.294,0.014,0.418,0.039c0.124,0.026,0.228,0.082,0.313,0.167
	c0.145,0.137,0.277,0.382,0.396,0.734c0.119,0.353,0.18,0.884,0.18,1.593c0,0.397-0.017,0.731-0.05,1
	c-0.033,0.27-0.075,0.492-0.126,0.668c-0.052,0.174-0.114,0.313-0.187,0.415c-0.072,0.101-0.148,0.185-0.228,0.251
	c-0.16,0.137-0.398,0.206-0.716,0.206h-2.706v1.178h2.677c0.319,0,0.606-0.039,0.864-0.117c0.258-0.078,0.483-0.209,0.675-0.394
	c0.3-0.269,0.542-0.661,0.727-1.174c0.185-0.513,0.278-1.192,0.278-2.034C236.663,88.429,236.582,87.765,236.42,87.261
	 M230.648,85.54h-1.18v7.429h1.18V85.54z M228.153,88.23c0-0.629-0.045-1.106-0.136-1.429c-0.092-0.324-0.228-0.583-0.411-0.778
	c-0.136-0.156-0.3-0.276-0.492-0.358c-0.192-0.082-0.435-0.125-0.731-0.125h-4.103v5.599c0,0.222-0.075,0.4-0.225,0.536
	c-0.149,0.135-0.353,0.202-0.611,0.202c-0.164,0-0.292-0.012-0.383-0.035c-0.091-0.024-0.179-0.05-0.263-0.078v1.164
	c0.136,0.046,0.257,0.075,0.361,0.085c0.106,0.01,0.224,0.015,0.355,0.015c0.595,0,1.068-0.167,1.42-0.501
	c0.351-0.334,0.527-0.82,0.527-1.458v-4.35h2.993c0.075,0,0.152,0.026,0.231,0.078c0.075,0.067,0.142,0.197,0.201,0.391
	c0.058,0.193,0.088,0.508,0.088,0.943v4.84h1.18V88.23z M217.276,88.23c0-0.629-0.045-1.106-0.137-1.429
	c-0.091-0.324-0.226-0.583-0.404-0.778c-0.136-0.156-0.3-0.276-0.492-0.358c-0.191-0.082-0.437-0.125-0.737-0.125h-4.328v7.43h1.18
	v-6.252h3.225c0.094,0,0.181,0.026,0.26,0.078c0.075,0.067,0.136,0.197,0.183,0.391c0.046,0.193,0.071,0.508,0.071,0.943v4.84h1.18
	V88.23z M209.86,85.54h-1.18v4.265h1.18V85.54z M207.4,85.54h-1.18v4.265h1.18V85.54z M199.913,91.863V86.69h3.337
	c0.099,0,0.186,0.026,0.261,0.078c0.074,0.067,0.136,0.202,0.186,0.405c0.049,0.204,0.074,0.523,0.074,0.958v3.732H199.913z
	 M204.952,88.23c0-0.629-0.045-1.106-0.137-1.429c-0.091-0.324-0.228-0.583-0.411-0.778c-0.135-0.156-0.3-0.276-0.491-0.358
	c-0.192-0.082-0.436-0.125-0.731-0.125h-4.448v7.43h6.218V88.23z"/>
<path style="fill:#1C4969;" d="M243.625,77.231h-1.18v4.3h1.18V77.231z M248.304,76.792c0-0.629-0.045-1.106-0.136-1.429
	c-0.092-0.324-0.229-0.583-0.412-0.778c-0.135-0.156-0.299-0.276-0.491-0.358c-0.192-0.082-0.435-0.125-0.731-0.125h-4.089v1.178
	h4.16c0.093,0,0.18,0.026,0.26,0.078c0.075,0.067,0.136,0.196,0.186,0.391c0.05,0.193,0.074,0.508,0.074,0.943v4.84h1.18V76.792z
	 M241.181,76.679c0-0.464-0.055-0.857-0.165-1.178c-0.11-0.322-0.27-0.594-0.482-0.817c-0.22-0.241-0.481-0.408-0.783-0.5
	c-0.302-0.093-0.636-0.138-1.002-0.138h-0.141c-0.656,0-1.195,0.212-1.616,0.638c-0.135,0.137-0.266,0.324-0.39,0.561
	c-0.124,0.237-0.224,0.468-0.299,0.695l-0.133,0.376l-0.962-2.214h-1.251l1.468,3.52l-1.209,3.91h1.237l1.511-4.853
	c0.154-0.507,0.346-0.876,0.576-1.107c0.136-0.133,0.289-0.228,0.461-0.287c0.17-0.059,0.366-0.089,0.586-0.089h0.106
	c0.393,0,0.709,0.12,0.949,0.361c0.239,0.242,0.358,0.643,0.358,1.206v3.605h-2.375v1.164h3.555V76.679z M233.376,76.792
	c0-0.629-0.045-1.106-0.137-1.429c-0.091-0.324-0.228-0.583-0.411-0.778c-0.135-0.156-0.299-0.276-0.491-0.358
	c-0.192-0.082-0.436-0.125-0.731-0.125h-3.225v1.178h3.268c0.037,0,0.078,0.016,0.123,0.046c0.044,0.031,0.091,0.06,0.137,0.089
	c0.075,0.067,0.142,0.191,0.201,0.376c0.058,0.185,0.088,0.494,0.088,0.93v4.811h1.18V76.792z M227.817,75.823
	c-0.162-0.504-0.382-0.898-0.663-1.181c-0.192-0.194-0.422-0.333-0.689-0.415c-0.267-0.082-0.564-0.125-0.893-0.125h-2.733v1.178
	h2.706c0.154,0,0.294,0.014,0.417,0.039c0.125,0.026,0.229,0.082,0.313,0.167c0.146,0.137,0.278,0.382,0.397,0.734
	c0.119,0.353,0.18,0.884,0.18,1.593c0,0.397-0.017,0.731-0.05,1c-0.033,0.27-0.075,0.492-0.126,0.668
	c-0.052,0.174-0.114,0.313-0.187,0.415c-0.073,0.101-0.149,0.185-0.228,0.251c-0.16,0.137-0.398,0.206-0.716,0.206h-2.706v1.178
	h2.677c0.319,0,0.606-0.039,0.864-0.117c0.258-0.078,0.483-0.209,0.675-0.394c0.299-0.269,0.542-0.661,0.727-1.174
	c0.185-0.513,0.278-1.192,0.278-2.034C228.06,76.99,227.979,76.327,227.817,75.823 M222.257,74.102h-3.738v1.178h2.157
	c-0.174,0.043-0.316,0.117-0.426,0.224c-0.11,0.107-0.195,0.227-0.257,0.361c-0.06,0.135-0.104,0.275-0.13,0.419
	c-0.025,0.144-0.038,0.276-0.038,0.394v4.853h1.18v-5.159c0-0.147,0.013-0.285,0.039-0.415c0.025-0.13,0.071-0.246,0.136-0.348
	c0.065-0.102,0.156-0.183,0.27-0.242c0.115-0.059,0.268-0.089,0.461-0.089h0.344V74.102z M214.956,74.102h-4.188v-2.668h-1.18v3.633
	c0,0.142,0.072,0.212,0.218,0.212h3.886l-0.647,3.619c-0.098,0.535-0.294,0.911-0.586,1.128c-0.294,0.218-0.655,0.326-1.086,0.326
	h-0.316v1.178h0.4c0.328,0,0.64-0.041,0.938-0.125c0.297-0.082,0.567-0.221,0.811-0.415c0.243-0.193,0.456-0.457,0.639-0.791
	c0.183-0.333,0.323-0.753,0.422-1.259l0.843-4.591C215.143,74.186,215.091,74.102,214.956,74.102 M209.03,76.792
	c0-0.629-0.045-1.106-0.136-1.429c-0.092-0.324-0.229-0.583-0.412-0.778c-0.135-0.156-0.299-0.276-0.491-0.358
	c-0.192-0.082-0.435-0.125-0.731-0.125h-3.225v1.178h3.268c0.038,0,0.078,0.016,0.123,0.046c0.045,0.031,0.091,0.06,0.137,0.089
	c0.075,0.067,0.142,0.191,0.201,0.376c0.058,0.185,0.088,0.494,0.088,0.93v4.811h1.18V76.792z M203.543,76.604
	c-0.038-0.338-0.095-0.633-0.172-0.883c-0.078-0.251-0.169-0.466-0.275-0.645c-0.105-0.181-0.23-0.343-0.376-0.49
	c-0.187-0.185-0.413-0.311-0.677-0.379c-0.265-0.069-0.561-0.104-0.89-0.104h-3.611v2.839c0,0.232,0.012,0.435,0.035,0.611
	c0.023,0.174,0.074,0.318,0.151,0.429s0.188,0.195,0.334,0.252c0.145,0.056,0.333,0.085,0.562,0.085h1.44v-1.1h-1.011
	c-0.113,0-0.2-0.036-0.26-0.107c-0.048-0.065-0.071-0.214-0.071-0.447V75.28h2.459c0.164,0,0.301,0.014,0.411,0.039
	c0.11,0.026,0.209,0.082,0.299,0.167c0.066,0.067,0.13,0.155,0.193,0.266c0.062,0.111,0.115,0.259,0.157,0.444
	c0.042,0.184,0.075,0.408,0.098,0.671c0.023,0.262,0.036,0.578,0.036,0.947c0,0.388-0.01,0.714-0.029,0.979
	s-0.044,0.487-0.077,0.667c-0.033,0.181-0.079,0.323-0.137,0.43c-0.058,0.107-0.126,0.192-0.2,0.259
	c-0.165,0.137-0.406,0.206-0.725,0.206h-3.723v1.178h3.759c0.314,0,0.576-0.037,0.787-0.11c0.21-0.074,0.412-0.207,0.604-0.401
	c0.318-0.307,0.558-0.708,0.719-1.202s0.243-1.163,0.243-2.005C203.599,77.345,203.58,76.942,203.543,76.604 M196.277,74.102h-1.18
	v7.429h1.18V74.102z M194.369,81.433l-2.101-2.896c0.356-0.269,0.642-0.547,0.858-0.834c0.215-0.286,0.382-0.596,0.502-0.93
	c0.119-0.333,0.199-0.696,0.236-1.089c0.038-0.392,0.056-0.837,0.056-1.334v-0.248h-1.265v0.292c0,0.378-0.004,0.733-0.014,1.064
	c-0.01,0.332-0.039,0.641-0.088,0.93c-0.05,0.288-0.134,0.557-0.254,0.806c-0.119,0.248-0.284,0.473-0.495,0.677l-2.845-3.768
	h-1.412v0.093l1.813,2.427c-0.356,0.288-0.642,0.607-0.858,0.958c-0.215,0.35-0.382,0.72-0.502,1.114
	c-0.119,0.393-0.198,0.802-0.236,1.228c-0.037,0.426-0.056,0.861-0.056,1.306v0.305h1.222v-0.277c0-0.388,0.01-0.781,0.029-1.178
	c0.018-0.397,0.058-0.77,0.119-1.118c0.06-0.348,0.156-0.667,0.288-0.958c0.131-0.291,0.311-0.524,0.541-0.698l3.077,4.229h1.384
	V81.433z M182.109,77.231h-1.18v4.3h1.18V77.231z M186.788,76.792c0-0.629-0.045-1.106-0.136-1.429
	c-0.092-0.324-0.229-0.583-0.411-0.778c-0.136-0.156-0.3-0.276-0.492-0.358c-0.192-0.082-0.435-0.125-0.731-0.125h-4.09v1.178h4.16
	c0.093,0,0.18,0.026,0.26,0.078c0.075,0.067,0.137,0.196,0.186,0.391c0.05,0.193,0.074,0.508,0.074,0.943v4.84h1.18V76.792z
	 M177.112,81.433l-2.1-2.896c0.356-0.269,0.641-0.547,0.857-0.834c0.216-0.286,0.382-0.596,0.503-0.93
	c0.119-0.333,0.198-0.696,0.235-1.089c0.038-0.392,0.057-0.837,0.057-1.334v-0.248h-1.266v0.292c0,0.378-0.004,0.733-0.014,1.064
	c-0.01,0.332-0.038,0.641-0.088,0.93c-0.05,0.288-0.133,0.557-0.252,0.806c-0.12,0.248-0.285,0.473-0.495,0.677l-2.846-3.768h-1.412
	v0.093l1.813,2.427c-0.356,0.288-0.641,0.607-0.857,0.958c-0.216,0.35-0.383,0.72-0.503,1.114c-0.119,0.393-0.198,0.802-0.236,1.228
	c-0.037,0.426-0.056,0.861-0.056,1.306v0.305h1.222v-0.277c0-0.388,0.01-0.781,0.029-1.178c0.019-0.397,0.058-0.77,0.119-1.118
	c0.061-0.348,0.157-0.667,0.288-0.958c0.131-0.291,0.312-0.524,0.541-0.698l3.077,4.229h1.384V81.433z M167.827,79.218
	c-0.046,0.388-0.187,0.699-0.422,0.933c-0.233,0.235-0.625,0.352-1.173,0.352h-0.387c-0.529,0-0.891-0.099-1.082-0.298
	c-0.192-0.199-0.302-0.464-0.331-0.796l-0.4-4.158h4.257L167.827,79.218z M169.514,74.102h-6.711c-0.046,0-0.079,0.02-0.098,0.06
	c-0.019,0.041-0.029,0.075-0.029,0.104l0.548,5.102c0.046,0.464,0.137,0.843,0.27,1.139c0.133,0.296,0.314,0.529,0.541,0.699
	c0.227,0.17,0.497,0.286,0.808,0.348s0.673,0.092,1.086,0.092h0.302c0.374,0,0.723-0.055,1.043-0.167
	c0.321-0.111,0.603-0.275,0.847-0.492c0.243-0.218,0.447-0.491,0.611-0.82c0.165-0.329,0.275-0.715,0.331-1.16l0.576-4.74
	C169.659,74.157,169.616,74.102,169.514,74.102 M161.808,76.792c0-0.629-0.045-1.106-0.137-1.429
	c-0.091-0.324-0.228-0.583-0.411-0.778c-0.136-0.156-0.3-0.276-0.491-0.358c-0.192-0.082-0.436-0.125-0.731-0.125h-4.103v5.599
	c0,0.222-0.075,0.4-0.225,0.536c-0.15,0.135-0.354,0.202-0.612,0.202c-0.164,0-0.292-0.012-0.382-0.035
	c-0.092-0.024-0.18-0.05-0.264-0.078v1.164c0.136,0.046,0.257,0.075,0.362,0.085c0.106,0.01,0.224,0.015,0.355,0.015
	c0.595,0,1.068-0.167,1.419-0.501c0.352-0.334,0.527-0.82,0.527-1.458v-4.35h2.993c0.075,0,0.152,0.026,0.232,0.078
	c0.075,0.067,0.142,0.196,0.2,0.391c0.059,0.193,0.089,0.508,0.089,0.943v4.84h1.18V76.792z M154.342,74.397
	c0-0.088-0.019-0.155-0.056-0.202c-0.042-0.061-0.119-0.093-0.232-0.093h-3.428v1.178h2.375l-0.457,3.868
	c-0.056,0.516-0.23,0.864-0.523,1.047c-0.293,0.182-0.671,0.273-1.135,0.273h-0.26c-0.431,0-0.752-0.081-0.962-0.244
	c-0.211-0.164-0.335-0.463-0.373-0.898l-0.52-5.223h-1.265l0.548,5.252c0.046,0.464,0.138,0.845,0.277,1.146
	c0.138,0.3,0.321,0.536,0.548,0.706c0.227,0.17,0.492,0.286,0.794,0.348c0.302,0.061,0.64,0.092,1.015,0.092h0.141
	c0.834,0,1.504-0.201,2.013-0.603c0.508-0.401,0.817-1.047,0.924-1.936l0.547-4.406C154.333,74.585,154.342,74.485,154.342,74.397
	 M146.483,74.102h-1.18v4.265h1.18V74.102z M144.032,76.792c0-0.629-0.045-1.106-0.137-1.429c-0.091-0.324-0.228-0.583-0.411-0.778
	c-0.135-0.156-0.3-0.276-0.491-0.358c-0.192-0.082-0.436-0.125-0.731-0.125h-4.103v5.599c0,0.222-0.075,0.4-0.225,0.536
	c-0.15,0.135-0.354,0.202-0.612,0.202c-0.164,0-0.292-0.012-0.382-0.035c-0.092-0.024-0.18-0.05-0.264-0.078v1.164
	c0.136,0.046,0.257,0.075,0.362,0.085c0.106,0.01,0.224,0.015,0.355,0.015c0.595,0,1.068-0.167,1.419-0.501
	c0.352-0.334,0.527-0.82,0.527-1.458v-4.35h2.993c0.075,0,0.153,0.026,0.232,0.078c0.075,0.067,0.142,0.196,0.2,0.391
	c0.059,0.193,0.089,0.508,0.089,0.943v4.84h1.18V76.792z"/>
</svg>
