<?xml version="1.0" encoding="utf-8"?>
<!-- Generator: Adobe Illustrator 17.1.0, SVG Export Plug-In . SVG Version: 6.00 Build 0)  -->
<!DOCTYPE svg PUBLIC "-//W3C//DTD SVG 1.1//EN" "http://www.w3.org/Graphics/SVG/1.1/DTD/svg11.dtd">
<svg version="1.1" id="Layer_1" xmlns="http://www.w3.org/2000/svg" xmlns:xlink="http://www.w3.org/1999/xlink" x="0px" y="0px"
	 viewBox="0 0 100 100" enable-background="new 0 0 100 100" xml:space="preserve">
<path d="M100,53.8c0,8.1-1,16.2-1,16.2s-1,6.9-4,9.9c-3.8,4-8.1,4-10,4.2c-14,1-35,1-35,1s-26-0.2-34-1c-2.2-0.4-7.2-0.3-11-4.3
	c-3-3-4-9.9-4-9.9s-1-8.1-1-16.2v-7.6C0,38.1,1,30,1,30s1-6.9,4-9.9c3.8-4,8.1-4,10-4.2c14-1,35-1,35-1h0c0,0,21,0,35,1
	c2,0.2,6.2,0.3,10,4.2c3,3,4,9.9,4,9.9s1,8.1,1,16.2V53.8z M39.7,63l27-14l-27-14.1L39.7,63z"/>
</svg>
